<svg version="1.1" xmlns="http://www.w3.org/2000/svg" viewBox="0 0 1173.9634399414062 489.733402797154" width="2347.9268798828125" height="979.466805594308">
  <!-- svg-source:excalidraw -->
  
  <defs>
    <style class="style-fonts">
      @font-face {
        font-family: "Virgil";
        src: url("https://excalidraw.com/Virgil.woff2");
      }
      @font-face {
        font-family: "Cascadia";
        src: url("https://excalidraw.com/Cascadia.woff2");
      }
    </style>
    
  </defs>
  <rect x="0" y="0" width="1173.9634399414062" height="489.733402797154" fill="#ffffff"></rect><g stroke-linecap="round" transform="translate(10 10) rotate(0 176.98171997070312 234.866701398577)"><path d="M32 0 M32 0 C107.49 -0.07, 183.61 -1.77, 321.96 0 M32 0 C111.7 0.34, 190.29 -0.25, 321.96 0 M321.96 0 C342.19 1.18, 354.18 12.32, 353.96 32 M321.96 0 C345.06 2.29, 352.99 8.39, 353.96 32 M353.96 32 C355.59 194.48, 354.21 354.9, 353.96 437.73 M353.96 32 C353.72 191.97, 354.37 351.7, 353.96 437.73 M353.96 437.73 C352.53 460.66, 341.58 468.2, 321.96 469.73 M353.96 437.73 C354.21 456.9, 341.79 467.76, 321.96 469.73 M321.96 469.73 C237.56 468.44, 154.7 467.46, 32 469.73 M321.96 469.73 C208.82 467.7, 95.85 467.75, 32 469.73 M32 469.73 C10.65 468.43, 1.55 458.55, 0 437.73 M32 469.73 C12.63 470.99, -0.93 457.71, 0 437.73 M0 437.73 C-0.35 325.66, -1.11 212.31, 0 32 M0 437.73 C-1.84 320.97, -1.17 203.68, 0 32 M0 32 C0.53 12.51, 12.6 -0.06, 32 0 M0 32 C-1.59 10.59, 10.78 -2, 32 0" stroke="#1e1e1e" stroke-width="1" fill="none"></path></g><g stroke-opacity="0.5" fill-opacity="0.5" stroke-linecap="round" transform="translate(31.45025634765625 70) rotate(0 126.256591796875 189.08163452148432)"><path d="M7.86 8.16 C7.86 8.16, 7.86 8.16, 7.86 8.16 M7.86 8.16 C7.86 8.16, 7.86 8.16, 7.86 8.16 M3.66 19.09 C5.29 15.64, 8.23 10.31, 18.1 2.48 M3.66 19.09 C6.02 14.77, 10.11 11.39, 18.1 2.48 M2.75 26.24 C6.36 19.3, 13.44 12.96, 24.4 1.33 M2.75 26.24 C9.84 18.84, 16.25 12.38, 24.4 1.33 M2.48 32.64 C10.92 24.88, 18.56 17.52, 30.7 0.18 M2.48 32.64 C11.3 22.82, 18.42 14.19, 30.7 0.18 M2.88 38.28 C16.42 26.58, 26.29 9.72, 34.37 2.05 M2.88 38.28 C13.12 27.42, 20.85 16.85, 34.37 2.05 M2.62 44.68 C16.73 25.72, 32.73 12.62, 39.36 2.41 M2.62 44.68 C9.39 35.03, 17.64 26.87, 39.36 2.41 M2.36 51.07 C14.98 39.36, 23.64 26.67, 45 2.02 M2.36 51.07 C19.51 33.18, 35.89 12.91, 45 2.02 M2.75 56.72 C17.66 37.78, 34.81 22.12, 49.99 2.38 M2.75 56.72 C15.26 43.39, 26.83 28.47, 49.99 2.38 M2.49 63.11 C14.47 46.63, 25.54 34.55, 55.63 1.98 M2.49 63.11 C20.69 43.26, 37.3 23.74, 55.63 1.98 M2.88 68.76 C25.44 44.09, 46.37 15.73, 60.62 2.34 M2.88 68.76 C15.34 55.97, 27.54 42.05, 60.62 2.34 M2.62 75.16 C20.75 50.62, 41.65 29.39, 66.26 1.95 M2.62 75.16 C19.5 55.11, 34.46 36.29, 66.26 1.95 M2.36 81.55 C17.89 63.41, 30.21 49.04, 71.25 2.31 M2.36 81.55 C25.3 55.3, 48.17 27.85, 71.25 2.31 M2.76 87.2 C30.35 56.63, 55.03 29.89, 76.89 1.91 M2.76 87.2 C24.37 60.7, 48.2 33.45, 76.89 1.91 M2.49 93.59 C23.99 69.45, 41.82 43.31, 81.88 2.27 M2.49 93.59 C33.38 57.13, 64.57 20.96, 81.88 2.27 M2.23 99.99 C28.14 71.28, 53.75 42.35, 87.52 1.88 M2.23 99.99 C21.26 78.03, 38.3 57.13, 87.52 1.88 M2.63 105.64 C27.47 77.21, 52.34 46.94, 92.51 2.24 M2.63 105.64 C20.65 85.88, 37.81 63.18, 92.51 2.24 M2.37 112.03 C34.77 73.31, 70.33 34.36, 98.15 1.85 M2.37 112.03 C25.54 84.43, 50.26 57.79, 98.15 1.85 M2.76 117.68 C30.26 83.3, 60.8 49.94, 103.14 2.21 M2.76 117.68 C31.13 83.92, 60.47 50.4, 103.14 2.21 M2.5 124.07 C44.68 77.72, 83.2 28.31, 108.78 1.81 M2.5 124.07 C36.26 83.21, 71.34 44.43, 108.78 1.81 M2.24 130.47 C43.57 85.27, 81.4 40.11, 113.77 2.17 M2.24 130.47 C29.63 98.34, 57.26 65.87, 113.77 2.17 M2.63 136.11 C40.78 90.96, 77.61 48.85, 119.41 1.78 M2.63 136.11 C35.31 97.36, 69.73 58.65, 119.41 1.78 M2.37 142.51 C29.61 112.3, 55.21 82.83, 124.4 2.14 M2.37 142.51 C47.95 91.8, 94.85 39.55, 124.4 2.14 M2.77 148.16 C49.86 92.13, 98.32 35.41, 130.04 1.74 M2.77 148.16 C52.63 88.89, 104.12 30.13, 130.04 1.74 M2.5 154.55 C42.63 108.89, 79.41 63.31, 135.03 2.1 M2.5 154.55 C31.58 122.07, 60.45 88.07, 135.03 2.1 M2.24 160.95 C55.73 96.3, 111.81 33.78, 140.67 1.71 M2.24 160.95 C43.52 115.39, 85.42 68.24, 140.67 1.71 M2.64 166.59 C36.54 126.72, 71.85 84.99, 145.66 2.07 M2.64 166.59 C40.06 123.35, 76.43 80.88, 145.66 2.07 M2.38 172.99 C53.6 117.21, 102.52 60.57, 150.65 2.43 M2.38 172.99 C33.19 138.51, 64.43 104.06, 150.65 2.43 M2.11 179.39 C35.57 141.79, 69.83 103.06, 156.29 2.03 M2.11 179.39 C36.92 138.88, 71.44 98.14, 156.29 2.03 M2.51 185.03 C55.76 120.82, 111.39 55.7, 161.28 2.39 M2.51 185.03 C54.92 125.35, 105.28 66.09, 161.28 2.39 M2.25 191.43 C36.33 149.64, 71.76 109.9, 166.92 2 M2.25 191.43 C58.64 125.33, 116.24 61.1, 166.92 2 M2.64 197.07 C61.32 129.5, 122.68 60.24, 171.91 2.36 M2.64 197.07 C44.21 147.75, 87.29 99.1, 171.91 2.36 M2.38 203.47 C54.62 143.96, 105.64 84, 177.55 1.96 M2.38 203.47 C56.97 138.61, 112.46 75.1, 177.55 1.96 M2.12 209.87 C41.5 165.57, 78.85 120.96, 182.54 2.32 M2.12 209.87 C67.96 137.29, 132.91 62.22, 182.54 2.32 M2.51 215.51 C39.2 169.59, 77.8 127.82, 188.18 1.93 M2.51 215.51 C64.76 143.96, 127.71 71.49, 188.18 1.93 M2.25 221.91 C76.62 138.38, 150.94 55.83, 193.17 2.29 M2.25 221.91 C41.34 176.81, 80.19 131.15, 193.17 2.29 M2.65 227.55 C69.47 150.09, 139.71 71.35, 198.81 1.9 M2.65 227.55 C61.45 162.16, 116.75 96.66, 198.81 1.9 M2.39 233.95 C57.33 172.43, 111.02 108.13, 203.8 2.26 M2.39 233.95 C69.96 154.74, 136.88 77.36, 203.8 2.26 M2.12 240.35 C78.22 151.61, 157.41 61.82, 209.44 1.86 M2.12 240.35 C68.87 162.26, 137.16 84.1, 209.44 1.86 M2.52 245.99 C52.85 189.51, 103.07 130.98, 214.43 2.22 M2.52 245.99 C60.94 177.37, 120.32 108.24, 214.43 2.22 M2.26 252.39 C54.91 192.81, 107.06 132.92, 221.38 0.32 M2.26 252.39 C66.12 179.15, 130.91 105.16, 221.38 0.32 M2 258.79 C53.71 197.63, 109.84 134.61, 225.71 1.43 M2 258.79 C81.16 170.6, 159.17 80.23, 225.71 1.43 M2.39 264.43 C75.33 180.68, 146.83 98.24, 230.7 1.79 M2.39 264.43 C79.43 177.22, 153.9 91.24, 230.7 1.79 M2.13 270.83 C90.43 169.8, 179.48 69.72, 235.03 2.91 M2.13 270.83 C59.44 205.78, 114.23 142.06, 235.03 2.91 M2.52 276.47 C69.05 198.15, 135.16 121.77, 239.36 4.02 M2.52 276.47 C58.68 212.76, 115.13 147.62, 239.36 4.02 M2.26 282.87 C77.83 195.41, 153.63 109.51, 242.38 6.65 M2.26 282.87 C57.87 216.7, 114.14 151.89, 242.38 6.65 M2 289.27 C65.97 216.43, 128.25 143.25, 245.4 9.27 M2 289.27 C82.75 198.09, 160.78 108, 245.4 9.27 M2.4 294.91 C75.67 211.23, 150.05 128.67, 248.42 11.89 M2.4 294.91 C100.98 182.66, 198.16 69.47, 248.42 11.89 M2.13 301.31 C63.41 231.35, 126.83 159.2, 250.78 15.27 M2.13 301.31 C93.27 196.92, 183.93 92.71, 250.78 15.27 M2.53 306.95 C81.84 217.33, 160.36 125.12, 252.49 19.41 M2.53 306.95 C96.26 198.68, 191.18 89.42, 252.49 19.41 M2.27 313.35 C79.38 224.63, 156.87 135.34, 252.88 25.05 M2.27 313.35 C60.71 244.47, 120.36 176.13, 252.88 25.05 M2.01 319.75 C92.02 217.43, 178.56 114.26, 253.93 29.94 M2.01 319.75 C56.32 255.49, 111.13 192.94, 253.93 29.94 M2.4 325.39 C93.51 220.08, 187.28 115.12, 255.64 34.07 M2.4 325.39 C76.4 241.9, 148.86 159.02, 255.64 34.07 M2.14 331.79 C88.04 235.42, 172.24 138.05, 255.38 40.47 M2.14 331.79 C83.55 237.76, 165.77 142.7, 255.38 40.47 M1.88 338.19 C52.64 278.8, 104.2 220.5, 255.12 46.87 M1.88 338.19 C89.69 236.87, 177.28 136.09, 255.12 46.87 M0.3 346.09 C91.43 239.99, 182.4 136.25, 255.51 52.51 M0.3 346.09 C79.82 255.46, 158.57 163.64, 255.51 52.51 M0.7 351.74 C70.82 268.05, 144.98 184.04, 255.25 58.91 M0.7 351.74 C86.82 252.77, 174.73 151.15, 255.25 58.91 M1.75 356.62 C74.61 274.51, 145.71 190.14, 255.64 64.55 M1.75 356.62 C94.63 251.91, 185.69 147.07, 255.64 64.55 M2.8 361.51 C84.53 266.34, 170.34 169.94, 255.38 70.95 M2.8 361.51 C73.15 281.1, 144.06 199.88, 255.38 70.95 M5.16 364.89 C93.64 262.81, 182.75 161.1, 255.12 77.35 M5.16 364.89 C66.04 294.61, 127.67 224.77, 255.12 77.35 M7.53 368.27 C89.83 273.82, 172.68 179.16, 255.52 82.99 M7.53 368.27 C68.19 300.63, 127.6 230.46, 255.52 82.99 M10.54 370.89 C98.07 269.57, 186.94 169.78, 255.25 89.39 M10.54 370.89 C90.97 281.05, 169.56 190.58, 255.25 89.39 M12.91 374.27 C94.95 276.84, 177.13 182.91, 254.99 95.79 M12.91 374.27 C65.13 316.07, 114.88 257.34, 254.99 95.79 M16.58 376.14 C79.77 302.61, 143.31 230.99, 255.39 101.43 M16.58 376.14 C94.95 285.12, 174.31 194.82, 255.39 101.43 M20.26 378.01 C84.35 303.51, 148.43 228.5, 255.13 107.83 M20.26 378.01 C75.44 313.9, 130.75 251, 255.13 107.83 M24.59 379.13 C114.02 278.39, 202 176.07, 255.52 113.47 M24.59 379.13 C114.44 273.7, 206.12 167.65, 255.52 113.47 M29.57 379.49 C103.63 293.18, 176.32 211.31, 255.26 119.87 M29.57 379.49 C86.83 312.09, 145.97 243.93, 255.26 119.87 M34.56 379.85 C82.53 324.13, 132.81 266.19, 255 126.26 M34.56 379.85 C86.39 322.06, 136.89 263.61, 255 126.26 M39.55 380.21 C109.58 297.52, 182 215.16, 255.39 131.91 M39.55 380.21 C109.35 300.8, 177.26 221.69, 255.39 131.91 M45.19 379.81 C96.1 323.39, 147.18 264.83, 255.13 138.31 M45.19 379.81 C113.38 301.7, 183.01 222.88, 255.13 138.31 M50.18 380.17 C94.3 327.07, 139.3 275.44, 255.53 143.95 M50.18 380.17 C116.09 306.57, 180.04 233.34, 255.53 143.95 M55.17 380.53 C106.23 323.97, 157.37 263.95, 255.26 150.35 M55.17 380.53 C127.12 296.3, 199.79 211.27, 255.26 150.35 M60.81 380.14 C131.57 300.29, 202.14 217.64, 255 156.74 M60.81 380.14 C107.91 325.79, 155.79 270.85, 255 156.74 M65.8 380.5 C115.76 322.24, 163.89 267.31, 255.4 162.39 M65.8 380.5 C103.02 337.69, 141.33 293.25, 255.4 162.39 M71.44 380.1 C114.22 331.88, 154.6 286.57, 255.14 168.79 M71.44 380.1 C142.73 297.06, 215.02 214.06, 255.14 168.79 M76.43 380.46 C112.55 338.85, 148.56 295.67, 255.53 174.43 M76.43 380.46 C128.08 322.09, 179.56 261.88, 255.53 174.43 M82.07 380.07 C133.17 319.77, 184.76 261.19, 255.27 180.83 M82.07 380.07 C137.77 316.58, 193.45 253.71, 255.27 180.83 M87.06 380.43 C122.58 338.16, 159.41 296.05, 255.01 187.22 M87.06 380.43 C129.72 329.6, 172.29 279.43, 255.01 187.22 M92.7 380.03 C153.49 311.05, 215.46 238.99, 255.4 192.87 M92.7 380.03 C137.04 329.03, 182.72 278.77, 255.4 192.87 M97.69 380.4 C156.68 311.77, 217.47 243.92, 255.14 199.26 M97.69 380.4 C149.32 321.75, 200.59 262.7, 255.14 199.26 M103.33 380 C148.41 329.01, 192.03 276.72, 255.53 204.91 M103.33 380 C163.22 313.81, 222.66 245.84, 255.53 204.91 M108.32 380.36 C156.45 323.07, 208.17 262.51, 255.27 211.31 M108.32 380.36 C149.6 330.92, 191.98 283.21, 255.27 211.31 M113.96 379.97 C164.47 317.78, 217.05 257.42, 255.01 217.7 M113.96 379.97 C154.18 334.35, 193.47 288.85, 255.01 217.7 M118.95 380.33 C166.48 329.36, 210.09 275.05, 255.41 223.35 M118.95 380.33 C162.59 329.09, 206.62 277.63, 255.41 223.35 M124.59 379.93 C171.01 324.81, 222.05 266.81, 255.14 229.74 M124.59 379.93 C158.77 342.22, 192.16 303.08, 255.14 229.74 M129.58 380.29 C172.31 332.55, 212.97 285.61, 255.54 235.39 M129.58 380.29 C156.62 347.57, 183.56 315.31, 255.54 235.39 M135.22 379.9 C177.97 333.03, 216.48 281.39, 255.28 241.79 M135.22 379.9 C170.87 338.05, 206.71 296.61, 255.28 241.79 M140.21 380.26 C169.15 346.37, 200.55 308.14, 255.02 248.18 M140.21 380.26 C175.7 337.63, 212.24 296.47, 255.02 248.18 M145.85 379.86 C166.7 351.56, 191.31 328.56, 255.41 253.83 M145.85 379.86 C176.26 344.59, 205.87 310.4, 255.41 253.83 M150.84 380.22 C182.25 347.98, 211.6 314.2, 255.15 260.22 M150.84 380.22 C189.29 338.27, 225.27 294.64, 255.15 260.22 M156.48 379.83 C185.29 343.86, 216.31 310.46, 255.54 265.87 M156.48 379.83 C191.33 340.56, 225.65 301.7, 255.54 265.87 M161.47 380.19 C186.41 354.57, 209.24 329.21, 255.28 272.26 M161.47 380.19 C184.01 353.4, 207.47 325.13, 255.28 272.26 M167.11 379.79 C191.97 349.65, 220.47 316.6, 255.02 278.66 M167.11 379.79 C197.7 343.99, 227.64 309.91, 255.02 278.66 M172.1 380.15 C189.39 360.42, 206.56 339.79, 255.42 284.31 M172.1 380.15 C198.91 349.28, 226.54 317.82, 255.42 284.31 M177.08 380.51 C197.92 355.26, 220.09 328.87, 255.15 290.7 M177.08 380.51 C209.15 345.72, 238.4 309.98, 255.15 290.7 M182.73 380.12 C209.68 350.45, 235.52 317.53, 255.55 296.35 M182.73 380.12 C200.99 358.98, 219.42 338.78, 255.55 296.35 M187.71 380.48 C203.49 362.63, 219.99 343.59, 255.29 302.74 M187.71 380.48 C208.69 356.59, 228.88 333.86, 255.29 302.74 M193.36 380.08 C213.98 358.94, 233.71 333.35, 255.03 309.14 M193.36 380.08 C212.5 358.48, 232.5 335.38, 255.03 309.14 M198.34 380.44 C222.37 354.75, 241.58 332.28, 255.42 314.78 M198.34 380.44 C219.64 355.84, 241.97 330.78, 255.42 314.78 M203.99 380.05 C226.02 356.36, 243.67 333.61, 255.16 321.18 M203.99 380.05 C222.5 357.31, 241.47 334.96, 255.16 321.18 M208.97 380.41 C219.15 368.04, 230.91 356.87, 255.55 326.83 M208.97 380.41 C226.76 360.18, 244.44 340.47, 255.55 326.83 M214.62 380.02 C227.63 367.64, 239.08 352.32, 255.29 333.22 M214.62 380.02 C225.84 367.28, 237.61 354.58, 255.29 333.22 M220.92 378.87 C230.61 367.91, 242.98 354.61, 255.03 339.62 M220.92 378.87 C234.25 363.78, 246.43 349.39, 255.03 339.62 M227.22 377.72 C235.32 369.23, 242.57 356.47, 253.46 347.53 M227.22 377.72 C234.41 369.79, 239.67 363.91, 253.46 347.53 M233.51 376.57 C239.51 371.18, 245.52 362.56, 252.54 354.68 M233.51 376.57 C239.62 369.07, 245.8 362.48, 252.54 354.68" stroke="#a9a9b2" stroke-width="0.5" fill="none"></path><path d="M32 0 M32 0 C86.53 1.3, 140.73 2.54, 220.51 0 M32 0 C85.95 -0.68, 138.93 -1.31, 220.51 0 M220.51 0 C242.21 0.94, 253.03 9.95, 252.51 32 M220.51 0 C244.13 1.5, 254.06 8.4, 252.51 32 M252.51 32 C255.57 122.84, 253.54 213.75, 252.51 346.16 M252.51 32 C253.12 128.31, 251.87 225.16, 252.51 346.16 M252.51 346.16 C250.59 368.56, 243.25 376.82, 220.51 378.16 M252.51 346.16 C254.64 368.75, 241.11 380.35, 220.51 378.16 M220.51 378.16 C149.1 379.55, 76.5 378.12, 32 378.16 M220.51 378.16 C159.14 379.94, 97.03 379.02, 32 378.16 M32 378.16 C10.58 377.3, -1.13 365.92, 0 346.16 M32 378.16 C10.73 380.1, 1.34 368.26, 0 346.16 M0 346.16 C-2.5 267.62, -2.46 191.83, 0 32 M0 346.16 C2.29 236.55, 1.83 127.17, 0 32 M0 32 C-1.59 9.32, 9.08 -0.45, 32 0 M0 32 C1.33 12.37, 11.25 2.24, 32 0" stroke="#1e1e1e" stroke-width="1" fill="none"></path></g><g stroke-opacity="0.5" fill-opacity="0.5" stroke-linecap="round" transform="translate(883.9634399414062 69.99999999999989) rotate(0 140 200.56145586286272)"><path d="M7.86 8.16 C7.86 8.16, 7.86 8.16, 7.86 8.16 M7.86 8.16 C7.86 8.16, 7.86 8.16, 7.86 8.16 M3.66 19.09 C9.77 13.5, 10.84 8.93, 18.1 2.48 M3.66 19.09 C9.17 11.44, 15.61 6.7, 18.1 2.48 M2.75 26.24 C5.75 19.27, 11.44 15.39, 24.4 1.33 M2.75 26.24 C9.15 20.28, 13.57 13.83, 24.4 1.33 M2.48 32.64 C14.53 21.89, 25.25 6.69, 30.7 0.18 M2.48 32.64 C11.4 21.45, 21.48 11.88, 30.7 0.18 M2.88 38.28 C12.35 30.4, 19.48 18.95, 34.37 2.05 M2.88 38.28 C10 28.69, 16.67 21.35, 34.37 2.05 M2.62 44.68 C16.46 31.46, 27.2 18.27, 39.36 2.41 M2.62 44.68 C16.93 28.78, 30.51 11.01, 39.36 2.41 M2.36 51.07 C12.55 42.72, 21.65 32.47, 45 2.02 M2.36 51.07 C14.73 34.78, 28.59 20.25, 45 2.02 M2.75 56.72 C15.63 40.84, 25.16 26.65, 49.99 2.38 M2.75 56.72 C13.14 44.51, 22.03 34.18, 49.99 2.38 M2.49 63.11 C20.49 43.45, 37.39 21.72, 55.63 1.98 M2.49 63.11 C21.99 41.37, 39.86 21.63, 55.63 1.98 M2.88 68.76 C18.7 48.12, 38.05 26.17, 60.62 2.34 M2.88 68.76 C18.21 51.11, 31.84 32.62, 60.62 2.34 M2.62 75.16 C27.38 45.31, 52.18 16.21, 66.26 1.95 M2.62 75.16 C22.13 53.64, 41.34 31.81, 66.26 1.95 M2.36 81.55 C18.9 62.99, 31.41 46.01, 71.25 2.31 M2.36 81.55 C21.41 59.38, 40.61 36.46, 71.25 2.31 M2.76 87.2 C18.16 71.63, 30.78 51.21, 76.89 1.91 M2.76 87.2 C27.91 57.31, 54.84 27.31, 76.89 1.91 M2.49 93.59 C21.37 70.21, 42.36 49.67, 81.88 2.27 M2.49 93.59 C24.6 66.89, 48.27 40.55, 81.88 2.27 M2.23 99.99 C26.03 70.69, 51.24 42.15, 87.52 1.88 M2.23 99.99 C35.62 62.26, 67.53 23.01, 87.52 1.88 M2.63 105.64 C31.23 69.93, 61.93 37.78, 92.51 2.24 M2.63 105.64 C35.62 68.98, 66.55 32.58, 92.51 2.24 M2.37 112.03 C25.37 84.93, 48.89 56.51, 98.15 1.85 M2.37 112.03 C33.88 75.5, 64.37 40.56, 98.15 1.85 M2.76 117.68 C30.03 84.05, 60.91 50.32, 103.14 2.21 M2.76 117.68 C25.27 92.93, 46.65 68.33, 103.14 2.21 M2.5 124.07 C41.4 80.82, 84.15 35.03, 108.78 1.81 M2.5 124.07 C42.08 77, 82.75 29.72, 108.78 1.81 M2.24 130.47 C45.26 78.18, 91.46 25.98, 113.77 2.17 M2.24 130.47 C35.74 92.1, 67.2 54.09, 113.77 2.17 M2.63 136.11 C28.24 108.42, 52.65 78.56, 119.41 1.78 M2.63 136.11 C47.83 81.55, 94.81 28.64, 119.41 1.78 M2.37 142.51 C37.73 103.24, 76.08 61.49, 124.4 2.14 M2.37 142.51 C31.87 107.92, 61.89 72.75, 124.4 2.14 M2.77 148.16 C36.57 108.61, 67.12 71.99, 130.04 1.74 M2.77 148.16 C46.53 100.38, 88.78 51.57, 130.04 1.74 M2.5 154.55 C29.56 123.96, 59.05 93.15, 135.03 2.1 M2.5 154.55 C31.26 121.82, 60.39 88.66, 135.03 2.1 M2.24 160.95 C34.43 124.22, 64.51 87.49, 140.67 1.71 M2.24 160.95 C49.19 104.87, 97.68 48.49, 140.67 1.71 M2.64 166.59 C50.53 112.72, 94.76 59.07, 145.66 2.07 M2.64 166.59 C32.58 130.55, 63.05 96.05, 145.66 2.07 M2.38 172.99 C52.76 112.63, 105.74 55.95, 150.65 2.43 M2.38 172.99 C54.07 113.92, 107.11 53.61, 150.65 2.43 M2.11 179.39 C39.2 133.54, 79.35 89.26, 156.29 2.03 M2.11 179.39 C48.15 127.16, 93.27 74.58, 156.29 2.03 M2.51 185.03 C51.9 125.33, 102.18 68.18, 161.28 2.39 M2.51 185.03 C36.99 146.52, 70.27 107.35, 161.28 2.39 M2.25 191.43 C62.69 125.89, 122.54 56.31, 166.92 2 M2.25 191.43 C35.24 151.1, 69.38 113.24, 166.92 2 M2.64 197.07 C58.85 131.59, 116.16 65.58, 171.91 2.36 M2.64 197.07 C68.78 123.16, 134.26 49.41, 171.91 2.36 M2.38 203.47 C38.22 162.06, 73.54 119.38, 177.55 1.96 M2.38 203.47 C62.46 134.45, 124.28 64.44, 177.55 1.96 M2.12 209.87 C57.14 149.86, 106.44 89.17, 182.54 2.32 M2.12 209.87 C51.51 154.32, 99.64 97.59, 182.54 2.32 M2.51 215.51 C65.38 142.13, 126.04 71.52, 188.18 1.93 M2.51 215.51 C70.76 135.92, 141.34 55.44, 188.18 1.93 M2.25 221.91 C63.11 150.46, 127.02 77.79, 193.17 2.29 M2.25 221.91 C47.35 170.64, 92.8 117.94, 193.17 2.29 M2.65 227.55 C56.48 164.35, 111.38 99.45, 198.81 1.9 M2.65 227.55 C49.8 174.05, 96.23 120.69, 198.81 1.9 M2.39 233.95 C61.54 166.55, 121.23 99.05, 203.8 2.26 M2.39 233.95 C49.31 178.57, 99.02 122.22, 203.8 2.26 M2.12 240.35 C76.29 159.37, 148.43 75.08, 209.44 1.86 M2.12 240.35 C68.54 164.48, 133.6 89.53, 209.44 1.86 M2.52 245.99 C74.89 164.58, 143.55 84.95, 214.43 2.22 M2.52 245.99 C83.18 153.87, 163.58 62.65, 214.43 2.22 M2.26 252.39 C56.62 191.02, 106.5 132.17, 220.07 1.83 M2.26 252.39 C63.23 180.79, 124.18 110.5, 220.07 1.83 M2 258.79 C54.85 198.95, 108.17 137.2, 225.06 2.19 M2 258.79 C72.65 177.76, 142.92 97.62, 225.06 2.19 M2.39 264.43 C55.81 201.45, 109.29 139.74, 230.7 1.79 M2.39 264.43 C62.21 196.12, 121.19 127.46, 230.7 1.79 M2.13 270.83 C80.24 182.82, 154.34 96.92, 235.69 2.15 M2.13 270.83 C72.14 191.45, 141.92 112.75, 235.69 2.15 M2.52 276.47 C98.56 168.17, 192.14 57.62, 241.33 1.76 M2.52 276.47 C61.79 209.03, 122.28 139.86, 241.33 1.76 M2.26 282.87 C92.74 178.99, 181.64 76.9, 248.28 -0.15 M2.26 282.87 C79.79 194.44, 157.53 104.06, 248.28 -0.15 M2 289.27 C96.24 180.83, 191.24 71.4, 252.62 0.97 M2 289.27 C79.6 200.91, 157.18 111.59, 252.62 0.97 M2.4 294.91 C61.69 225.07, 122.44 155.75, 257.6 1.33 M2.4 294.91 C92.99 191.3, 181.86 87.29, 257.6 1.33 M2.13 301.31 C58.05 234.74, 114.73 170.52, 261.93 2.44 M2.13 301.31 C95.98 193.37, 191.24 85.21, 261.93 2.44 M2.53 306.95 C79.69 219.83, 155.18 133.9, 266.26 3.56 M2.53 306.95 C91.74 206.05, 179.37 105.01, 266.26 3.56 M2.27 313.35 C88.42 214.2, 174.81 113.91, 269.28 6.18 M2.27 313.35 C55.92 250.84, 110.16 188.93, 269.28 6.18 M2.01 319.75 C96.05 211.21, 189.14 104.08, 272.3 8.81 M2.01 319.75 C98.84 207.95, 194.97 97.78, 272.3 8.81 M2.4 325.39 C87.84 228.31, 171.52 129.78, 275.32 11.43 M2.4 325.39 C78.23 235.58, 156.75 145.86, 275.32 11.43 M2.14 331.79 C95.48 224.89, 190.89 114.24, 277.68 14.81 M2.14 331.79 C80.62 241.95, 158.81 150.83, 277.68 14.81 M1.88 338.19 C103.27 223.59, 202.53 109.24, 279.39 18.94 M1.88 338.19 C92.36 233.41, 185.44 127.36, 279.39 18.94 M2.27 343.83 C79.39 255.83, 157.59 166.52, 279.78 24.59 M2.27 343.83 C101.18 230.97, 200.11 117.51, 279.78 24.59 M2.01 350.23 C69.94 271.46, 139 193.85, 280.84 29.47 M2.01 350.23 C94.27 244.22, 187.32 137.47, 280.84 29.47 M2.4 355.87 C71.06 279.58, 137.71 199.73, 282.54 33.61 M2.4 355.87 C102.72 240.41, 204.12 124.8, 282.54 33.61 M2.14 362.27 C94.33 259.76, 184.3 156.15, 282.28 40.01 M2.14 362.27 C97.1 250.45, 192.6 140.85, 282.28 40.01 M0.57 370.17 C61.35 302.81, 118.87 234.13, 282.02 46.4 M0.57 370.17 C75.06 284.2, 149.24 199.47, 282.02 46.4 M1.62 375.06 C93.94 268.07, 187.48 162.12, 282.41 52.05 M1.62 375.06 C78.12 285.65, 155.42 196.19, 282.41 52.05 M2.02 380.71 C67.47 304.18, 133.68 229.2, 282.15 58.44 M2.02 380.71 C110.29 257.63, 218.07 133.21, 282.15 58.44 M3.72 384.84 C112.36 257.82, 222.99 129.62, 282.55 64.09 M3.72 384.84 C94.66 279.58, 184.65 176.76, 282.55 64.09 M5.43 388.97 C75.82 306.54, 148.49 222.74, 282.29 70.49 M5.43 388.97 C67.04 318.15, 130.01 245.66, 282.29 70.49 M7.79 392.35 C72.46 320.15, 135 247.62, 282.02 76.88 M7.79 392.35 C97.4 287.66, 188.71 183, 282.02 76.88 M10.81 394.98 C98.58 295.1, 183.87 195.41, 282.42 82.53 M10.81 394.98 C76.98 320.72, 142.9 244.95, 282.42 82.53 M13.83 397.6 C101.11 297.35, 190.29 196.77, 282.16 88.92 M13.83 397.6 C72.28 328.97, 131.06 261.4, 282.16 88.92 M17.5 399.47 C102.28 304.15, 184.73 209.83, 282.55 94.57 M17.5 399.47 C85.63 323, 153.56 244.4, 282.55 94.57 M21.18 401.34 C115.3 291.74, 210.05 180.47, 282.29 100.96 M21.18 401.34 C115.71 292.62, 211.22 182.19, 282.29 100.96 M25.51 402.45 C87.52 330.78, 150.85 258.15, 282.03 107.36 M25.51 402.45 C92.92 324.41, 158.99 248.57, 282.03 107.36 M30.5 402.81 C80.1 345.64, 130.98 286.52, 282.42 113.01 M30.5 402.81 C88.24 337.43, 144.06 273.66, 282.42 113.01 M34.83 403.93 C130.83 292.24, 228.23 180.44, 282.16 119.4 M34.83 403.93 C85.09 346.16, 135.58 287.39, 282.16 119.4 M40.47 403.53 C110.28 324.52, 179.75 243.03, 282.56 125.05 M40.47 403.53 C112.95 319.98, 185.24 237.12, 282.56 125.05 M45.46 403.89 C121.32 317.22, 197.57 231.37, 282.3 131.44 M45.46 403.89 C95.57 344.27, 147.01 285.2, 282.3 131.44 M51.1 403.5 C110.07 333.72, 168.42 264.68, 282.03 137.84 M51.1 403.5 C137.91 304.81, 224.95 204.38, 282.03 137.84 M56.09 403.86 C117.48 332.85, 181.31 263.09, 282.43 143.49 M56.09 403.86 C141.38 305.37, 227.56 207.06, 282.43 143.49 M61.73 403.47 C133.57 321.68, 205.44 238.9, 282.17 149.88 M61.73 403.47 C126.5 328.68, 191.17 253.45, 282.17 149.88 M66.72 403.83 C151.33 309.73, 235.69 213.35, 282.56 155.53 M66.72 403.83 C139.35 318.16, 214.15 231.7, 282.56 155.53 M72.36 403.43 C131.54 332.86, 192.19 264.78, 282.3 161.92 M72.36 403.43 C149 312.37, 226.95 222.75, 282.3 161.92 M77.35 403.79 C135.7 337.22, 192.64 271.24, 282.04 168.32 M77.35 403.79 C147.02 326.22, 214.24 247.23, 282.04 168.32 M82.99 403.4 C147.11 328.69, 211.37 253.46, 282.43 173.96 M82.99 403.4 C156.43 317.73, 232.05 231.01, 282.43 173.96 M87.98 403.76 C138.35 347.69, 188.01 289.48, 282.17 180.36 M87.98 403.76 C151.88 330.98, 214.67 258.68, 282.17 180.36 M93.62 403.36 C134.35 354.47, 174.77 306.07, 282.57 186.01 M93.62 403.36 C159.14 327.58, 224.12 250.06, 282.57 186.01 M98.61 403.72 C153.1 340.03, 207.94 276.61, 282.3 192.4 M98.61 403.72 C146.49 347.33, 196.14 289.41, 282.3 192.4 M103.6 404.08 C159.05 337.98, 215.85 274, 282.04 198.8 M103.6 404.08 C139.19 360.24, 176.61 319.27, 282.04 198.8 M109.24 403.69 C156.99 348.12, 203.8 294.07, 282.44 204.44 M109.24 403.69 C159.22 348.67, 208.23 292.27, 282.44 204.44 M114.23 404.05 C175.79 336.69, 233.72 266.44, 282.18 210.84 M114.23 404.05 C164.63 344.19, 216.72 285.2, 282.18 210.84 M119.87 403.65 C176.8 339.26, 233.17 275.42, 282.57 216.49 M119.87 403.65 C161.33 358.39, 201.33 312.75, 282.57 216.49 M124.86 404.01 C162.88 359.07, 202.27 311.64, 282.31 222.88 M124.86 404.01 C171.5 349.31, 219.88 293.56, 282.31 222.88 M130.5 403.62 C183.24 342.13, 234.85 283.38, 282.05 229.28 M130.5 403.62 C160.86 368.16, 191.91 332.06, 282.05 229.28 M135.49 403.98 C182.76 349.69, 231.46 294.24, 282.44 234.92 M135.49 403.98 C176.37 354.95, 218.48 306.13, 282.44 234.92 M141.13 403.58 C198.89 340.59, 251.82 276.05, 282.18 241.32 M141.13 403.58 C193.58 344.86, 245.16 284.12, 282.18 241.32 M146.12 403.94 C180.11 364.54, 214.47 326.8, 281.92 247.72 M146.12 403.94 C178.22 367.46, 210.34 330.49, 281.92 247.72 M151.76 403.55 C192.34 357.39, 231.32 313.55, 282.31 253.36 M151.76 403.55 C194.6 356.2, 236.05 307.07, 282.31 253.36 M156.75 403.91 C195.64 359.99, 236.25 313.09, 282.05 259.76 M156.75 403.91 C206.43 348.78, 252.63 295.46, 282.05 259.76 M162.39 403.52 C207.25 351.71, 254.14 299.03, 282.45 265.4 M162.39 403.52 C211.38 349.46, 257.15 295.59, 282.45 265.4 M167.38 403.88 C209.1 352.92, 251.7 302.84, 282.19 271.8 M167.38 403.88 C192.54 373.68, 218.5 345.01, 282.19 271.8 M173.02 403.48 C214.63 356.15, 255.95 309.89, 281.92 278.2 M173.02 403.48 C206.28 366.26, 238.59 328.02, 281.92 278.2 M178.01 403.84 C206.73 371.1, 236.56 338.49, 282.32 283.84 M178.01 403.84 C211.29 365.88, 245.77 326.68, 282.32 283.84 M183.65 403.45 C221.66 360.26, 257.24 318.56, 282.06 290.24 M183.65 403.45 C213.91 367.2, 244.67 329.61, 282.06 290.24 M188.64 403.81 C212.99 376.69, 233.35 353.6, 282.45 295.88 M188.64 403.81 C219.3 369.55, 249.68 333.75, 282.45 295.88 M194.28 403.41 C221.56 371.36, 249.02 340.81, 282.19 302.28 M194.28 403.41 C219.07 375.24, 244.37 347.06, 282.19 302.28 M199.27 403.77 C223.75 377.32, 246.35 349.13, 281.93 308.68 M199.27 403.77 C224.77 374.29, 252.09 343.71, 281.93 308.68 M204.91 403.38 C221.37 386.63, 235.2 365.81, 282.32 314.32 M204.91 403.38 C220.87 386.07, 235.77 366.02, 282.32 314.32 M209.9 403.74 C226.87 385.02, 242.09 370.44, 282.06 320.72 M209.9 403.74 C227.76 381.84, 248.49 358.4, 282.06 320.72 M214.88 404.1 C239.93 376, 267.49 344.73, 282.46 326.36 M214.88 404.1 C232.04 384.07, 248.63 365.16, 282.46 326.36 M220.53 403.7 C242.73 378.13, 265.82 348.43, 282.2 332.76 M220.53 403.7 C233.67 388.5, 245.68 375.57, 282.2 332.76 M225.51 404.06 C237.64 387.4, 251.36 372.53, 281.93 339.16 M225.51 404.06 C246.19 380.92, 265.48 357.66, 281.93 339.16 M231.16 403.67 C250.23 381.87, 269.69 357.13, 282.33 344.8 M231.16 403.67 C242.16 391.87, 254.08 378.49, 282.33 344.8 M236.14 404.03 C248.89 388.44, 260.75 373.76, 282.07 351.2 M236.14 404.03 C246.85 391.29, 256.72 378.87, 282.07 351.2 M241.79 403.63 C258.79 387.49, 272.36 370.27, 282.46 356.84 M241.79 403.63 C252.52 389.9, 263.3 378.66, 282.46 356.84 M248.74 401.73 C255.59 391.79, 264.12 386.2, 282.2 363.24 M248.74 401.73 C259.45 389.88, 269.9 377.12, 282.2 363.24 M255.04 400.58 C260.01 393.94, 266.87 387.2, 281.28 370.39 M255.04 400.58 C264.54 389.62, 274.59 377.21, 281.28 370.39 M260.68 400.19 C266.16 391.88, 276.35 382.1, 280.37 377.54 M260.68 400.19 C265.52 393.29, 272.48 386.73, 280.37 377.54" stroke="#a9a9b2" stroke-width="0.5" fill="none"></path><path d="M32 0 M32 0 C110.03 1.74, 190.46 2.53, 248 0 M32 0 C88.09 1.98, 146.21 1.9, 248 0 M248 0 C267.64 -0.41, 281.8 9.4, 280 32 M248 0 C267.23 1.12, 280.83 11.32, 280 32 M280 32 C280.86 103, 281.67 174.54, 280 369.12 M280 32 C279.48 107.29, 278.8 181.02, 280 369.12 M280 369.12 C279.73 391.1, 271.28 402.97, 248 401.12 M280 369.12 C277.83 390.27, 267.27 400.29, 248 401.12 M248 401.12 C197.65 400.53, 151.04 400.63, 32 401.12 M248 401.12 C194.14 401.19, 140.25 402.72, 32 401.12 M32 401.12 C10.84 402.45, -0.32 389.47, 0 369.12 M32 401.12 C10.21 402.83, -2.07 388.38, 0 369.12 M0 369.12 C2.5 284.41, 1.5 201.72, 0 32 M0 369.12 C-0.28 273.58, 0.71 179.5, 0 32 M0 32 C-1.67 9.5, 11 -0.62, 32 0 M0 32 C-1.75 11.97, 9.45 0.8, 32 0" stroke="#1e1e1e" stroke-width="1" fill="none"></path></g><g transform="translate(123.48171997070312 25.399999999999977) rotate(0 88.265625 16.099999999999994)"><text x="0" y="0" font-family="Helvetica, Segoe UI Emoji" font-size="28px" fill="#1e1e1e" text-anchor="start" style="white-space: pre;" direction="ltr" dominant-baseline="text-before-edge">Bob's browser</text></g><g transform="translate(45.67950439453125 80.80000000000001) rotate(0 112.02734375 32.20000000000002)"><text x="112.02734375" y="0" font-family="Helvetica, Segoe UI Emoji" font-size="28px" fill="#1e1e1e" text-anchor="middle" style="white-space: pre;" direction="ltr" dominant-baseline="text-before-edge">Carol's client</text><text x="112.02734375" y="32.199999999999996" font-family="Helvetica, Segoe UI Emoji" font-size="28px" fill="#1e1e1e" text-anchor="middle" style="white-space: pre;" direction="ltr" dominant-baseline="text-before-edge">(https://carol.com)</text></g><g transform="translate(907.2603149414062 80.80000000000001) rotate(0 116.703125 32.20000000000002)"><text x="116.703125" y="0" font-family="Helvetica, Segoe UI Emoji" font-size="28px" fill="#1e1e1e" text-anchor="middle" style="white-space: pre;" direction="ltr" dominant-baseline="text-before-edge">Sarah's server</text><text x="116.703125" y="32.199999999999996" font-family="Helvetica, Segoe UI Emoji" font-size="28px" fill="#1e1e1e" text-anchor="middle" style="white-space: pre;" direction="ltr" dominant-baseline="text-before-edge">(https://sarah.com)</text></g><g transform="translate(38.385498046875 210.36236572265625) rotate(0 121.7333984375 58.125)"><text x="0" y="0" font-family="Helvetica, Segoe UI Emoji" font-size="20px" fill="#1e1e1e" text-anchor="start" style="white-space: pre;" direction="ltr" dominant-baseline="text-before-edge">&lt;script&gt;</text><text x="0" y="23.25" font-family="Helvetica, Segoe UI Emoji" font-size="20px" fill="#1e1e1e" text-anchor="start" style="white-space: pre;" direction="ltr" dominant-baseline="text-before-edge">  fetch('//sarah.com')</text><text x="0" y="46.5" font-family="Helvetica, Segoe UI Emoji" font-size="20px" fill="#1e1e1e" text-anchor="start" style="white-space: pre;" direction="ltr" dominant-baseline="text-before-edge">    .then(data =&gt; data.text())</text><text x="0" y="69.75" font-family="Helvetica, Segoe UI Emoji" font-size="20px" fill="#1e1e1e" text-anchor="start" style="white-space: pre;" direction="ltr" dominant-baseline="text-before-edge">    .then(console.log);</text><text x="0" y="93" font-family="Helvetica, Segoe UI Emoji" font-size="20px" fill="#1e1e1e" text-anchor="start" style="white-space: pre;" direction="ltr" dominant-baseline="text-before-edge">&lt;/script&gt;</text></g><g stroke-linecap="round"><g transform="translate(363.96343994140625 129) rotate(0 260 0)"><path d="M0 0 C86.67 0, 433.33 0, 520 0 M0 0 C86.67 0, 433.33 0, 520 0" stroke="#1e1e1e" stroke-width="2" fill="none"></path></g><g transform="translate(363.96343994140625 129) rotate(0 260 0)"><path d="M491.81 10.26 C497.71 8.11, 503.6 5.97, 520 0 M491.81 10.26 C499.82 7.35, 507.82 4.43, 520 0" stroke="#1e1e1e" stroke-width="2" fill="none"></path></g><g transform="translate(363.96343994140625 129) rotate(0 260 0)"><path d="M491.81 -10.26 C497.71 -8.11, 503.6 -5.97, 520 0 M491.81 -10.26 C499.82 -7.35, 507.82 -4.43, 520 0" stroke="#1e1e1e" stroke-width="2" fill="none"></path></g></g><mask></mask><g transform="translate(383.96343994140625 139.75) rotate(0 105.5908203125 46.25)"><text x="0" y="0" font-family="Helvetica, Segoe UI Emoji" font-size="20px" fill="#1e1e1e" text-anchor="start" style="white-space: pre;" direction="ltr" dominant-baseline="text-before-edge">GET / HTTP/2</text><text x="0" y="23.125" font-family="Helvetica, Segoe UI Emoji" font-size="20px" fill="#1e1e1e" text-anchor="start" style="white-space: pre;" direction="ltr" dominant-baseline="text-before-edge">Host: sarah.com</text><text x="0" y="46.25" font-family="Helvetica, Segoe UI Emoji" font-size="20px" fill="#1e1e1e" text-anchor="start" style="white-space: pre;" direction="ltr" dominant-baseline="text-before-edge">Origin: https://carol.com</text><text x="0" y="69.375" font-family="Helvetica, Segoe UI Emoji" font-size="20px" fill="#1e1e1e" text-anchor="start" style="white-space: pre;" direction="ltr" dominant-baseline="text-before-edge">-snip-</text></g><g stroke-linecap="round"><g transform="translate(882.7967732747395 285.8884985441989) rotate(0 -259.41666666666663 2.055750727900545)"><path d="M0 0 C-86.47 0.69, -432.36 3.43, -518.83 4.11 M0 0 C-86.47 0.69, -432.36 3.43, -518.83 4.11" stroke="#1e1e1e" stroke-width="2" fill="none"></path></g><g transform="translate(882.7967732747395 285.8884985441989) rotate(0 -259.41666666666663 2.055750727900545)"><path d="M-490.72 -6.37 C-499.47 -3.11, -508.21 0.15, -518.83 4.11 M-490.72 -6.37 C-499.9 -2.95, -509.07 0.47, -518.83 4.11" stroke="#1e1e1e" stroke-width="2" fill="none"></path></g><g transform="translate(882.7967732747395 285.8884985441989) rotate(0 -259.41666666666663 2.055750727900545)"><path d="M-490.56 14.15 C-499.36 11.03, -508.15 7.9, -518.83 4.11 M-490.56 14.15 C-499.79 10.87, -509.02 7.6, -518.83 4.11" stroke="#1e1e1e" stroke-width="2" fill="none"></path></g></g><mask></mask><g transform="translate(466.96343994140625 298.375) rotate(0 71.1376953125 46.5)"><text x="0" y="0" font-family="Helvetica, Segoe UI Emoji" font-size="20px" fill="#1e1e1e" text-anchor="start" style="white-space: pre;" direction="ltr" dominant-baseline="text-before-edge">HTTP/2 200 OK</text><text x="0" y="23.25" font-family="Helvetica, Segoe UI Emoji" font-size="20px" fill="#1e1e1e" text-anchor="start" style="white-space: pre;" direction="ltr" dominant-baseline="text-before-edge">-snip-</text><text x="0" y="46.5" font-family="Helvetica, Segoe UI Emoji" font-size="20px" fill="#1e1e1e" text-anchor="start" style="white-space: pre;" direction="ltr" dominant-baseline="text-before-edge"></text><text x="0" y="69.75" font-family="Helvetica, Segoe UI Emoji" font-size="20px" fill="#1e1e1e" text-anchor="start" style="white-space: pre;" direction="ltr" dominant-baseline="text-before-edge">Hello, World!</text></g><g transform="translate(303.96343994140625 70) rotate(0 10.0107421875 21)"><text x="0" y="0" font-family="Helvetica, Segoe UI Emoji" font-size="36px" fill="#1e1e1e" text-anchor="start" style="white-space: pre;" direction="ltr" dominant-baseline="text-before-edge">1</text></g><g transform="translate(383.96343994140625 70) rotate(0 10.0107421875 21)"><text x="0" y="0" font-family="Helvetica, Segoe UI Emoji" font-size="36px" fill="#1e1e1e" text-anchor="start" style="white-space: pre;" direction="ltr" dominant-baseline="text-before-edge">2</text></g><g transform="translate(843.9634399414062 230) rotate(0 10.0107421875 21)"><text x="0" y="0" font-family="Helvetica, Segoe UI Emoji" font-size="36px" fill="#1e1e1e" text-anchor="start" style="white-space: pre;" direction="ltr" dominant-baseline="text-before-edge">3</text></g><g stroke-linecap="round"><g transform="translate(283.96343994140625 130) rotate(0 40 0)"><path d="M0 0 C13.33 0, 66.67 0, 80 0 M0 0 C13.33 0, 66.67 0, 80 0" stroke="#1e1e1e" stroke-width="2" fill="none"></path></g><g transform="translate(283.96343994140625 130) rotate(0 40 0)"><path d="M51.81 10.26 C58.54 7.81, 65.26 5.36, 80 0 M51.81 10.26 C61.11 6.88, 70.4 3.49, 80 0" stroke="#1e1e1e" stroke-width="2" fill="none"></path></g><g transform="translate(283.96343994140625 130) rotate(0 40 0)"><path d="M51.81 -10.26 C58.54 -7.81, 65.26 -5.36, 80 0 M51.81 -10.26 C61.11 -6.88, 70.4 -3.49, 80 0" stroke="#1e1e1e" stroke-width="2" fill="none"></path></g></g><mask></mask><g stroke-linecap="round"><g transform="translate(347.5574035644531 271.8452475411551) rotate(0 15.822846989333641 16.47296511679889)"><path d="M-1 -1.82 C4.48 3.89, 27.36 29.22, 32.65 34.76 M3.65 3.37 C8.95 8.25, 27.18 25.73, 31.39 30.8" stroke="#e03131" stroke-width="4" fill="none"></path></g></g><mask></mask><g stroke-linecap="round"><g transform="translate(347.5123946178842 306.5081768463798) rotate(0 15.041749702617551 -16.165321330726158)"><path d="M1.79 1.92 C7.09 -3.49, 25.56 -28.84, 30.76 -34.25 M-0.68 0.49 C4.33 -4.39, 22.96 -25.5, 28.47 -31.38" stroke="#e03131" stroke-width="4" fill="none"></path></g></g><mask></mask></svg>