<svg version="1.1" xmlns="http://www.w3.org/2000/svg" viewBox="0 0 880 560" width="1760" height="1120">
  <!-- svg-source:excalidraw -->
  
  <defs>
    <style class="style-fonts">
      @font-face {
        font-family: "Virgil";
        src: url("https://excalidraw.com/Virgil.woff2");
      }
      @font-face {
        font-family: "Cascadia";
        src: url("https://excalidraw.com/Cascadia.woff2");
      }
    </style>
    
  </defs>
  <rect x="0" y="0" width="880" height="560" fill="#ffffff"></rect><g transform="translate(390 450) rotate(0 120.068359375 34.5)"><text x="0" y="0" font-family="Helvetica, Segoe UI Emoji" font-size="20px" fill="#c2255c" text-anchor="start" style="white-space: pre;" direction="ltr" dominant-baseline="text-before-edge">type OptionCred interface {</text><text x="0" y="23" font-family="Helvetica, Segoe UI Emoji" font-size="20px" fill="#c2255c" text-anchor="start" style="white-space: pre;" direction="ltr" dominant-baseline="text-before-edge">  applyCred(*config) error</text><text x="0" y="46" font-family="Helvetica, Segoe UI Emoji" font-size="20px" fill="#c2255c" text-anchor="start" style="white-space: pre;" direction="ltr" dominant-baseline="text-before-edge">}</text></g><g stroke-linecap="round" transform="translate(370 430) rotate(0 250 60)"><path d="M30 0 M30 0 C144.59 -0.18, 261.25 -0.14, 470 0 M30 0 C203.98 0.78, 377.49 1.04, 470 0 M470 0 C489.67 -2, 500.51 10.74, 500 30 M470 0 C488.68 -1.09, 498.64 10.44, 500 30 M500 30 C501.5 48.56, 498.28 63.77, 500 90 M500 30 C500.32 45.47, 499.18 59.14, 500 90 M500 90 C498.9 110.56, 490.74 120.75, 470 120 M500 90 C502.11 109.79, 490.37 119.03, 470 120 M470 120 C312.02 120.3, 152.94 120.7, 30 120 M470 120 C300.1 118.4, 131.22 118.48, 30 120 M30 120 C11.81 121.68, -1.42 110.36, 0 90 M30 120 C10.52 119.76, 0.9 111.3, 0 90 M0 90 C2.28 66.24, -1.16 44.43, 0 30 M0 90 C-0.49 67.79, -0.3 44.62, 0 30 M0 30 C-1.5 11.12, 10.41 1.28, 30 0 M0 30 C0.51 10.64, 8.05 -0.34, 30 0" stroke="#c2255c" stroke-width="1" fill="none"></path></g><g transform="translate(390 30) rotate(0 151.171875 57.5)"><text x="0" y="0" font-family="Helvetica, Segoe UI Emoji" font-size="20px" fill="#6741d9" text-anchor="start" style="white-space: pre;" direction="ltr" dominant-baseline="text-before-edge">type OptionAnon interface {</text><text x="0" y="23" font-family="Helvetica, Segoe UI Emoji" font-size="20px" fill="#6741d9" text-anchor="start" style="white-space: pre;" direction="ltr" dominant-baseline="text-before-edge">  applyAnon(*config) error</text><text x="0" y="46" font-family="Helvetica, Segoe UI Emoji" font-size="20px" fill="#6741d9" text-anchor="start" style="white-space: pre;" direction="ltr" dominant-baseline="text-before-edge">}</text><text x="0" y="69" font-family="Helvetica, Segoe UI Emoji" font-size="20px" fill="#6741d9" text-anchor="start" style="white-space: pre;" direction="ltr" dominant-baseline="text-before-edge"></text><text x="0" y="92" font-family="Helvetica, Segoe UI Emoji" font-size="20px" fill="#6741d9" text-anchor="start" style="white-space: pre;" direction="ltr" dominant-baseline="text-before-edge">func FromAnyOrigin() OptionAnon</text></g><g stroke-linecap="round" transform="translate(370 10) rotate(0 250 80)"><path d="M32 0 M32 0 C119.14 -0.24, 206.21 1.4, 468 0 M32 0 C143.6 -0.3, 254.33 -0.17, 468 0 M468 0 C487.56 1.79, 500.29 11.11, 500 32 M468 0 C488.15 -0.37, 497.89 12.25, 500 32 M500 32 C499.74 60.66, 499.23 91.69, 500 128 M500 32 C501.55 54.2, 501.68 74.22, 500 128 M500 128 C500.35 150, 488.15 161.69, 468 160 M500 128 C499.63 147.04, 489.93 160.85, 468 160 M468 160 C362.33 158.6, 256.67 158.3, 32 160 M468 160 C309.34 157.55, 151.25 158.21, 32 160 M32 160 C11.3 161.6, -1.64 148.92, 0 128 M32 160 C9.41 160.65, 0.85 150.2, 0 128 M0 128 C-0.75 91.6, -1.68 53.78, 0 32 M0 128 C0.37 95.99, 0.07 61.38, 0 32 M0 32 C-1.77 12.12, 11.22 1.75, 32 0 M0 32 C2.08 12.6, 9.03 0.42, 32 0" stroke="#6741d9" stroke-width="1" fill="none"></path></g><g transform="translate(390 210) rotate(0 227.3291015625 92)"><text x="0" y="0" font-family="Helvetica, Segoe UI Emoji" font-size="20px" fill="#9c36b5" text-anchor="start" style="white-space: pre;" direction="ltr" dominant-baseline="text-before-edge">type Option interface {</text><text x="0" y="23" font-family="Helvetica, Segoe UI Emoji" font-size="20px" fill="#9c36b5" text-anchor="start" style="white-space: pre;" direction="ltr" dominant-baseline="text-before-edge">  OptionAnon</text><text x="0" y="46" font-family="Helvetica, Segoe UI Emoji" font-size="20px" fill="#9c36b5" text-anchor="start" style="white-space: pre;" direction="ltr" dominant-baseline="text-before-edge">  OptionCred</text><text x="0" y="69" font-family="Helvetica, Segoe UI Emoji" font-size="20px" fill="#9c36b5" text-anchor="start" style="white-space: pre;" direction="ltr" dominant-baseline="text-before-edge">}</text><text x="0" y="92" font-family="Helvetica, Segoe UI Emoji" font-size="20px" fill="#9c36b5" text-anchor="start" style="white-space: pre;" direction="ltr" dominant-baseline="text-before-edge"></text><text x="0" y="115" font-family="Helvetica, Segoe UI Emoji" font-size="20px" fill="#9c36b5" text-anchor="start" style="white-space: pre;" direction="ltr" dominant-baseline="text-before-edge">func FromOrigins(origins ...string) Option</text><text x="0" y="138" font-family="Helvetica, Segoe UI Emoji" font-size="20px" fill="#9c36b5" text-anchor="start" style="white-space: pre;" direction="ltr" dominant-baseline="text-before-edge">func WithMaxAge(seconds uint) Option</text><text x="0" y="161" font-family="Helvetica, Segoe UI Emoji" font-size="20px" fill="#9c36b5" text-anchor="start" style="white-space: pre;" direction="ltr" dominant-baseline="text-before-edge">func WithRequestHeaders(headers ...string) Option</text></g><g stroke-linecap="round" transform="translate(370 190) rotate(0 250 110)"><path d="M32 0 M32 0 C194.01 -1.97, 357.11 -1.48, 468 0 M32 0 C178.83 -1.94, 325.55 -1.72, 468 0 M468 0 C487.56 0.99, 500.85 9.11, 500 32 M468 0 C488.77 -0.88, 501.96 9.1, 500 32 M500 32 C499.17 66.65, 500.43 99.46, 500 188 M500 32 C500.18 68.1, 500.85 104.08, 500 188 M500 188 C499.05 208.2, 491.33 218.14, 468 220 M500 188 C498.34 207.29, 491.32 221.64, 468 220 M468 220 C353.49 223.14, 237.96 222.72, 32 220 M468 220 C328.32 220.06, 188.28 220.92, 32 220 M32 220 C9.06 219, 1.55 211.26, 0 188 M32 220 C10.25 217.98, -1.15 207.54, 0 188 M0 188 C-0.13 154.32, 0.24 124.1, 0 32 M0 188 C0.35 127.82, 0.29 66.19, 0 32 M0 32 C-1.42 10.11, 9.49 1.15, 32 0 M0 32 C-1.13 9.48, 11.4 -1.41, 32 0" stroke="#9c36b5" stroke-width="1" fill="none"></path></g><g stroke-linecap="round"><g transform="translate(244.75365536903774 229) rotate(0 61.97263552163818 -48.740106577016235)"><path d="M-0.05 0.23 C20.5 -15.96, 103.17 -81.12, 123.99 -97.71" stroke="#6741d9" stroke-width="1.5" fill="none" stroke-dasharray="8 9"></path></g><g transform="translate(244.75365536903774 229) rotate(0 61.97263552163818 -48.740106577016235)"><path d="M108.65 -72.59 C115.8 -80.34, 118.8 -89.12, 124.84 -98.57" stroke="#6741d9" stroke-width="1.5" fill="none"></path></g><g transform="translate(244.75365536903774 229) rotate(0 61.97263552163818 -48.740106577016235)"><path d="M95.91 -88.68 C107.58 -90.62, 115.18 -93.59, 124.84 -98.57" stroke="#6741d9" stroke-width="1.5" fill="none"></path></g></g><mask></mask><g stroke-linecap="round"><g transform="translate(251 285.83047844552806) rotate(0 59.68463758789002 2.325765816823605)"><path d="M-0.25 1.05 C19.69 1.61, 99.6 3, 119.62 3.61" stroke="#9c36b5" stroke-width="1.5" fill="none" stroke-dasharray="8 9"></path></g><g transform="translate(251 285.83047844552806) rotate(0 59.68463758789002 2.325765816823605)"><path d="M92.94 14.25 C98.65 11.91, 108.85 6.72, 118.07 3.58" stroke="#9c36b5" stroke-width="1.5" fill="none"></path></g><g transform="translate(251 285.83047844552806) rotate(0 59.68463758789002 2.325765816823605)"><path d="M93.42 -6.27 C99.03 -2.54, 109.08 -1.65, 118.07 3.58" stroke="#9c36b5" stroke-width="1.5" fill="none"></path></g></g><mask></mask><g stroke-linecap="round"><g transform="translate(251.0000000000001 327.0610653318609) rotate(0 59.75426593385629 67.09097781353393)"><path d="M0.62 -0.56 C20.48 21.72, 99.41 112.43, 118.89 134.75" stroke="#c2255c" stroke-width="1.5" fill="none" stroke-dasharray="8 9"></path></g><g transform="translate(251.0000000000001 327.0610653318609) rotate(0 59.75426593385629 67.09097781353393)"><path d="M91.69 121.71 C100.92 123.29, 105.86 128.17, 117.32 133.11" stroke="#c2255c" stroke-width="1.5" fill="none"></path></g><g transform="translate(251.0000000000001 327.0610653318609) rotate(0 59.75426593385629 67.09097781353393)"><path d="M107.16 108.23 C112.19 113.64, 112.81 122.29, 117.32 133.11" stroke="#c2255c" stroke-width="1.5" fill="none"></path></g></g><mask></mask><g stroke-linecap="round"><g transform="translate(10.12141146024689 250.99259757766498) rotate(0 117.3356472605999 38.88272164827126)"><path d="M0.88 0.03 C40.19 13.33, 195.73 65.71, 234.79 78.76 M-0.12 -0.99 C39.14 12.04, 194.8 63.48, 233.96 76.93" stroke="#1e1e1e" stroke-width="1" fill="none"></path></g></g><mask></mask><g stroke-linecap="round"><g transform="translate(9.880792347539085 330.0607606032474) rotate(0 118.16762642781362 -38.84168136276608)"><path d="M1.08 1.02 C39.89 -12.01, 194.86 -65.57, 233.91 -78.71 M0.18 0.52 C39.28 -12.37, 197.02 -64.94, 236.15 -77.79" stroke="#1e1e1e" stroke-width="1" fill="none"></path></g></g><mask></mask><g transform="translate(30 250) rotate(0 98.3935546875 34.5)"><text x="0" y="0" font-family="Helvetica, Segoe UI Emoji" font-size="20px" fill="#1e1e1e" text-anchor="start" style="white-space: pre;" direction="ltr" dominant-baseline="text-before-edge">type Option interface {</text><text x="0" y="23" font-family="Helvetica, Segoe UI Emoji" font-size="20px" fill="#1e1e1e" text-anchor="start" style="white-space: pre;" direction="ltr" dominant-baseline="text-before-edge">  apply(*config) error</text><text x="0" y="46" font-family="Helvetica, Segoe UI Emoji" font-size="20px" fill="#1e1e1e" text-anchor="start" style="white-space: pre;" direction="ltr" dominant-baseline="text-before-edge">}</text></g><g stroke-linecap="round" transform="translate(10 230) rotate(0 120 50)"><path d="M25 0 M25 0 C77.78 -2.88, 131.78 -1.24, 215 0 M25 0 C68.35 -0.62, 110.5 -0.45, 215 0 M215 0 C233.22 0.19, 241.75 10.08, 240 25 M215 0 C229.87 2.24, 238.95 7, 240 25 M240 25 C239.73 44.07, 238.54 61.52, 240 75 M240 25 C240.11 36.07, 240.66 46.72, 240 75 M240 75 C238.21 93.48, 231.84 99.3, 215 100 M240 75 C241.17 89.57, 231.94 98.36, 215 100 M215 100 C143.77 99.25, 72.39 101.69, 25 100 M215 100 C148.37 99.5, 83.47 99.65, 25 100 M25 100 C8.63 100.07, -1.77 92.86, 0 75 M25 100 C8.74 100.28, 0.34 89.8, 0 75 M0 75 C-0.34 61.16, -1.99 46.04, 0 25 M0 75 C0.56 58.11, -0.5 43.05, 0 25 M0 25 C1.79 6.91, 9.96 -1.76, 25 0 M0 25 C-1.63 8.84, 8.88 0.37, 25 0" stroke="#1e1e1e" stroke-width="1" fill="none"></path></g></svg>