<svg version="1.1" xmlns="http://www.w3.org/2000/svg" viewBox="0 0 772.44140625 203" width="1544.8828125" height="406">
  <!-- svg-source:excalidraw -->
  
  <defs>
    <style class="style-fonts">
      @font-face {
        font-family: "Virgil";
        src: url("https://excalidraw.com/Virgil.woff2");
      }
      @font-face {
        font-family: "Cascadia";
        src: url("https://excalidraw.com/Cascadia.woff2");
      }
    </style>
    
  </defs>
  <rect x="0" y="0" width="772.44140625" height="203" fill="#ffffff"></rect><g transform="translate(10 90) rotate(0 226.7333984375 11.5)"><text x="0" y="0" font-family="Helvetica, Segoe UI Emoji" font-size="20px" fill="#1e1e1e" text-anchor="start" style="white-space: pre;" direction="ltr" dominant-baseline="text-before-edge">func NewCORS(opts ...Option) (Middleware, error) </text></g><g transform="translate(110 10) rotate(0 257.3193359375 11.5)"><text x="0" y="0" font-family="Helvetica, Segoe UI Emoji" font-size="20px" fill="#6741d9" text-anchor="start" style="white-space: pre;" direction="ltr" dominant-baseline="text-before-edge">func AllowAccess(opts ...OptionAnon) (Middleware, error) </text></g><g transform="translate(110 170) rotate(0 326.220703125 11.5)"><text x="0" y="0" font-family="Helvetica, Segoe UI Emoji" font-size="20px" fill="#c2255c" text-anchor="start" style="white-space: pre;" direction="ltr" dominant-baseline="text-before-edge">func AllowAccessWithCredentials(opts ...OptionCred) (Middleware, error) </text></g><g stroke-linecap="round"><g transform="translate(450 105) rotate(0 -219.63615538377783 -0.3928102480201119)"><path d="M0.25 -0.06 C-72.75 0.14, -365.5 0.42, -439.07 0.53 M-1.08 -1.13 C-74.07 -1.24, -366.56 -1.26, -439.52 -1.32" stroke="#1e1e1e" stroke-width="1" fill="none"></path></g></g><mask></mask><g stroke-linecap="round"><g transform="translate(130 90) rotate(0 49.64827260002494 -29.43332419618963)"><path d="M-0.48 1.09 C16.08 -8.95, 82.99 -49.68, 99.77 -59.96 M1.47 0.62 C17.82 -9.24, 82.35 -48.36, 98.71 -58.4" stroke="#6741d9" stroke-width="1" fill="none"></path></g><g transform="translate(130 90) rotate(0 49.64827260002494 -29.43332419618963)"><path d="M81.79 -35.34 C86.26 -42.33, 91.48 -51.59, 98.72 -58.7 M79.21 -34.63 C84.71 -41.48, 91.26 -49.25, 98.97 -58.38" stroke="#6741d9" stroke-width="1" fill="none"></path></g><g transform="translate(130 90) rotate(0 49.64827260002494 -29.43332419618963)"><path d="M71.11 -52.87 C79.2 -53.95, 87.99 -57.34, 98.72 -58.7 M68.54 -52.15 C77.41 -53.58, 87.21 -56.03, 98.97 -58.38" stroke="#6741d9" stroke-width="1" fill="none"></path></g></g><mask></mask><g stroke-linecap="round"><g transform="translate(130.5905523650814 110.93613829389216) rotate(0 50.19786792899484 29.451338783749407)"><path d="M0.57 -0.94 C17.22 8.7, 82.14 48.59, 98.87 58.89 M-0.59 1.19 C16.5 11.45, 84.11 50.22, 100.99 59.84" stroke="#c2255c" stroke-width="1" fill="none"></path></g><g transform="translate(130.5905523650814 110.93613829389216) rotate(0 50.19786792899484 29.451338783749407)"><path d="M69.86 52.85 C75.99 57.24, 85.6 55.3, 102.49 61.81 M72.16 54.67 C80.84 55.57, 90.36 57.06, 101.19 59.14" stroke="#c2255c" stroke-width="1" fill="none"></path></g><g transform="translate(130.5905523650814 110.93613829389216) rotate(0 50.19786792899484 29.451338783749407)"><path d="M80.06 35.04 C84.14 43.32, 91.55 45.23, 102.49 61.81 M82.36 36.86 C87.69 43.81, 93.79 51.27, 101.19 59.14" stroke="#c2255c" stroke-width="1" fill="none"></path></g></g><mask></mask></svg>