<svg version="1.1" xmlns="http://www.w3.org/2000/svg" viewBox="0 0 1173.9634399414062 736.1936994280134" width="2347.9268798828125" height="1472.3873988560267" filter="invert(93%) hue-rotate(180deg)">
  <!-- svg-source:excalidraw -->
  
  <defs>
    <style class="style-fonts">
      @font-face {
        font-family: "Virgil";
        src: url("https://excalidraw.com/Virgil.woff2");
      }
      @font-face {
        font-family: "Cascadia";
        src: url("https://excalidraw.com/Cascadia.woff2");
      }
      @font-face {
        font-family: "Assistant";
        src: url("https://excalidraw.com/Assistant-Regular.woff2");
      }
    </style>
    
  </defs>
  <g stroke-linecap="round" transform="translate(10 10) rotate(0 176.98171997070312 358.0968497140067)"><path d="M32 0 C107.49 -0.07, 183.61 -1.77, 321.96 0 M32 0 C111.7 0.34, 190.29 -0.25, 321.96 0 M321.96 0 C342.19 1.18, 354.18 12.32, 353.96 32 M321.96 0 C345.06 2.29, 352.99 8.39, 353.96 32 M353.96 32 C355.53 292.28, 354.54 551.07, 353.96 684.19 M353.96 32 C353.84 289.13, 354.31 546.09, 353.96 684.19 M353.96 684.19 C352.53 707.12, 341.58 714.66, 321.96 716.19 M353.96 684.19 C354.21 703.36, 341.79 714.22, 321.96 716.19 M321.96 716.19 C237.56 714.9, 154.7 713.92, 32 716.19 M321.96 716.19 C208.82 714.16, 95.85 714.21, 32 716.19 M32 716.19 C10.65 714.89, 1.55 705.01, 0 684.19 M32 716.19 C12.63 717.45, -0.93 704.17, 0 684.19 M0 684.19 C-0.7 503.21, -1.25 321.32, 0 32 M0 684.19 C-2.01 496.21, -1.53 307.86, 0 32 M0 32 C0.53 12.51, 12.6 -0.06, 32 0 M0 32 C-1.59 10.59, 10.78 -2, 32 0" stroke="#a9a9b2" stroke-width="1" fill="none"></path></g><g stroke-opacity="0.5" fill-opacity="0.5" stroke-linecap="round" transform="translate(31.45025634765625 54.71795654296875) rotate(0 136.256591796875 319.95280456542963)"><path d="M7.86 8.16 C7.86 8.16, 7.86 8.16, 7.86 8.16 M7.86 8.16 C7.86 8.16, 7.86 8.16, 7.86 8.16 M3.66 19.09 C10.21 14.09, 16.14 8.16, 18.1 2.48 M3.66 19.09 C8.6 14.47, 13.46 6.87, 18.1 2.48 M2.75 26.24 C7.55 22.24, 14.74 15.38, 24.4 1.33 M2.75 26.24 C10.85 17.3, 17.44 9.85, 24.4 1.33 M1.83 33.39 C9.62 25.34, 16.18 20.8, 30.7 0.18 M1.83 33.39 C13.39 21.53, 23.13 7.27, 30.7 0.18 M1.57 39.79 C9.41 31.4, 20.04 17.54, 34.37 2.05 M1.57 39.79 C9.33 32.37, 15.92 24.16, 34.37 2.05 M1.96 45.43 C13.02 33.71, 20.89 24.71, 39.36 2.41 M1.96 45.43 C10.92 34.53, 22.36 22.15, 39.36 2.41 M1.7 51.83 C16.92 35.23, 27.51 19.62, 45 2.02 M1.7 51.83 C14.83 38.83, 27.09 24.1, 45 2.02 M1.44 58.23 C13.78 45.07, 23.49 31.98, 49.99 2.38 M1.44 58.23 C14.86 41.42, 28.89 26.77, 49.99 2.38 M1.83 63.87 C14.62 50.32, 29.59 32.8, 55.63 1.98 M1.83 63.87 C18.52 46.63, 33.77 28.48, 55.63 1.98 M1.57 70.27 C19.26 50.41, 34.44 35.17, 60.62 2.34 M1.57 70.27 C15.45 55.38, 27.36 40.63, 60.62 2.34 M1.97 75.91 C29.12 45.45, 52.33 17.11, 66.26 1.95 M1.97 75.91 C21.65 52.25, 41.15 28.64, 66.26 1.95 M1.71 82.31 C25.62 56.11, 46.68 29.78, 71.25 2.31 M1.71 82.31 C23.84 57.84, 44.36 34.89, 71.25 2.31 M1.44 88.71 C17.99 71.19, 33.29 49.8, 76.89 1.91 M1.44 88.71 C30.75 54.82, 61.76 20.34, 76.89 1.91 M1.84 94.35 C23.79 70.04, 45.27 44.18, 81.88 2.27 M1.84 94.35 C19.86 72.67, 39.23 50, 81.88 2.27 M1.58 100.75 C20.62 79.31, 38.39 56.52, 87.52 1.88 M1.58 100.75 C30.91 67.1, 60.83 33.7, 87.52 1.88 M1.97 106.39 C21.24 80.54, 42.58 58.56, 92.51 2.24 M1.97 106.39 C38.21 64.56, 73 23.23, 92.51 2.24 M1.71 112.79 C23.76 87.5, 44.76 59.93, 98.15 1.85 M1.71 112.79 C34.81 76.3, 68.18 38.05, 98.15 1.85 M1.45 119.19 C30.05 87.67, 55.94 60.01, 103.14 2.21 M1.45 119.19 C23.38 93.51, 44.74 66.76, 103.14 2.21 M1.84 124.83 C35.24 82.72, 70.45 44.81, 108.12 2.57 M1.84 124.83 C34.66 87.37, 68.07 48.27, 108.12 2.57 M1.58 131.23 C27.44 101.5, 52.44 72.34, 113.77 2.17 M1.58 131.23 C23.77 103.98, 47.09 79.3, 113.77 2.17 M1.98 136.87 C34.78 97.68, 70.92 57.07, 118.76 2.53 M1.98 136.87 C48.23 84.58, 94.99 31.25, 118.76 2.53 M1.72 143.27 C46.85 92.93, 91.05 42.2, 124.4 2.14 M1.72 143.27 C40.66 99.58, 76.95 55.93, 124.4 2.14 M1.45 149.67 C27.57 120.37, 55.58 89.43, 129.39 2.5 M1.45 149.67 C33.8 114.69, 65.69 76.29, 129.39 2.5 M1.85 155.31 C42.49 109.19, 81.7 61.51, 135.03 2.1 M1.85 155.31 C50.98 96.98, 100.34 40.25, 135.03 2.1 M1.59 161.71 C55.2 101.87, 106.05 40.06, 140.02 2.46 M1.59 161.71 C46.04 111.57, 89.87 61.5, 140.02 2.46 M1.98 167.35 C40.79 124.91, 76.74 80.39, 145.66 2.07 M1.98 167.35 C44.85 119.06, 87.59 70.52, 145.66 2.07 M1.72 173.75 C40.44 127.36, 80.73 85.5, 150.65 2.43 M1.72 173.75 C61.14 107.87, 118.84 39.4, 150.65 2.43 M1.46 180.14 C36.3 137.31, 70.53 97.28, 156.29 2.03 M1.46 180.14 C37.33 136.88, 74.17 95.57, 156.29 2.03 M1.85 185.79 C57.71 121.31, 114.84 55.39, 161.28 2.39 M1.85 185.79 C44.63 137.03, 85.61 89.55, 161.28 2.39 M1.59 192.19 C67.05 117.23, 135.79 41.5, 166.92 2 M1.59 192.19 C38.02 150.96, 75.13 109.1, 166.92 2 M1.99 197.83 C51.09 144.36, 98.51 88.67, 171.91 2.36 M1.99 197.83 C44.63 147.3, 86.2 98.93, 171.91 2.36 M1.72 204.23 C58.34 139.1, 114.21 73.28, 176.89 2.72 M1.72 204.23 C63.87 134.08, 125.07 64.57, 176.89 2.72 M1.46 210.62 C54.36 150.02, 106.64 88.64, 182.54 2.32 M1.46 210.62 C50.56 156.14, 99.64 100.15, 182.54 2.32 M1.86 216.27 C71.61 136.62, 139.6 59.27, 187.52 2.68 M1.86 216.27 C72.37 135.74, 142.06 54.76, 187.52 2.68 M1.6 222.66 C74.71 136.67, 149.65 54.95, 193.17 2.29 M1.6 222.66 C73.3 139.25, 146.27 55.23, 193.17 2.29 M1.99 228.31 C50.86 171.42, 103.35 112.71, 198.15 2.65 M1.99 228.31 C68.5 151.01, 135.46 74.13, 198.15 2.65 M1.73 234.71 C78.57 145.51, 159.09 53.96, 203.8 2.26 M1.73 234.71 C45.26 184.85, 89.16 133.45, 203.8 2.26 M1.47 241.1 C66.29 168.35, 129.34 96.77, 208.78 2.62 M1.47 241.1 C67.36 165.37, 132.96 89.42, 208.78 2.62 M1.86 246.75 C55.8 187.61, 109.39 124.87, 214.43 2.22 M1.86 246.75 C83.22 153.83, 164.54 60.69, 214.43 2.22 M1.6 253.14 C49.26 196.67, 100.49 139.25, 219.41 2.58 M1.6 253.14 C59.6 185.74, 118.55 117.98, 219.41 2.58 M2 258.79 C87.88 157.43, 175.94 58.34, 225.06 2.19 M2 258.79 C55.12 198.02, 107.49 137.98, 225.06 2.19 M1.73 265.19 C70.15 184.16, 138.86 105.29, 230.04 2.55 M1.73 265.19 C51.46 206.38, 101.96 149.26, 230.04 2.55 M1.47 271.58 C75.85 185.81, 147.98 103.19, 235.69 2.15 M1.47 271.58 C74.4 185.98, 147.81 101.3, 235.69 2.15 M1.87 277.23 C52.09 222.76, 99.42 167.08, 240.67 2.51 M1.87 277.23 C61.74 205.59, 123.96 134.67, 240.67 2.51 M1.61 283.62 C52.47 229.1, 101.29 170.87, 245.66 2.87 M1.61 283.62 C77.5 195.35, 152.69 108.55, 245.66 2.87 M2 289.27 C97.25 177.64, 195.77 65.47, 250.65 3.23 M2 289.27 C84.09 193.16, 168.14 97.51, 250.65 3.23 M1.74 295.66 C87.44 196.49, 172.22 99.26, 254.98 4.35 M1.74 295.66 C73.78 214.49, 145.43 131.66, 254.98 4.35 M1.48 302.06 C79.48 210.76, 158.15 120.03, 259.97 4.71 M1.48 302.06 C71.07 220.76, 141.44 139.07, 259.97 4.71 M1.87 307.71 C74.12 224.69, 146.23 142.95, 262.98 7.33 M1.87 307.71 C72.91 228.8, 140.91 149.43, 262.98 7.33 M1.61 314.1 C99.86 201.15, 195.67 91.69, 266 9.96 M1.61 314.1 C96.46 206.72, 190.04 99.99, 266 9.96 M2.01 319.75 C68.49 240.3, 137.4 162.38, 268.37 13.33 M2.01 319.75 C66.6 244.24, 130.54 170.27, 268.37 13.33 M1.74 326.14 C105.77 206.14, 209.87 87.06, 270.73 16.71 M1.74 326.14 C88.94 222.86, 177.19 121, 270.73 16.71 M1.48 332.54 C58.23 268.17, 114.39 202.88, 273.09 20.09 M1.48 332.54 C104.98 212.9, 208.13 94.4, 273.09 20.09 M1.88 338.19 C100.78 224.38, 200.38 112.18, 273.49 25.74 M1.88 338.19 C62.46 268.96, 121.12 201.22, 273.49 25.74 M1.62 344.58 C92.58 237.45, 187.32 131.6, 273.22 32.13 M1.62 344.58 C108.58 220.03, 216.54 94.72, 273.22 32.13 M2.01 350.23 C74.55 267.22, 150.15 182.56, 272.96 38.53 M2.01 350.23 C83.62 258.27, 164.46 164.87, 272.96 38.53 M1.75 356.62 C98.51 245.91, 194.27 135.28, 272.7 44.93 M1.75 356.62 C106.03 236.22, 210.88 115.48, 272.7 44.93 M1.49 363.02 C75.2 278.73, 149.56 191.75, 273.1 50.57 M1.49 363.02 C89.15 261.53, 175.95 162.53, 273.1 50.57 M1.88 368.66 C62.11 297.61, 121.06 228.45, 272.83 56.97 M1.88 368.66 C56.59 305.19, 112.24 240.69, 272.83 56.97 M1.62 375.06 C87.91 276.39, 172.99 177.61, 273.23 62.61 M1.62 375.06 C81.9 283.59, 161.14 192.24, 273.23 62.61 M2.02 380.71 C60.04 313.69, 119.29 247.41, 272.97 69.01 M2.02 380.71 C73.69 296.78, 145.66 213.26, 272.97 69.01 M1.75 387.1 C92.47 282.8, 184.6 177.66, 272.71 75.41 M1.75 387.1 C85.27 293.21, 167.25 199.69, 272.71 75.41 M1.49 393.5 C75.86 305.51, 150.4 219.82, 273.1 81.05 M1.49 393.5 C99.68 280.84, 198.58 166.17, 273.1 81.05 M1.89 399.14 C66.67 323.47, 133.06 248.54, 272.84 87.45 M1.89 399.14 C78.88 309.66, 156.7 220.93, 272.84 87.45 M1.63 405.54 C67.53 329.6, 132.48 254.13, 273.23 93.09 M1.63 405.54 C71.57 326.25, 139.22 249.08, 273.23 93.09 M2.02 411.18 C92.13 307.77, 181.96 204.06, 272.97 99.49 M2.02 411.18 C71.69 331.38, 142.33 249.78, 272.97 99.49 M1.76 417.58 C62.49 347.29, 122.94 277.7, 272.71 105.89 M1.76 417.58 C65.82 344.92, 130.88 270.37, 272.71 105.89 M1.5 423.98 C82.52 328.52, 163.84 234.02, 273.11 111.53 M1.5 423.98 C81.78 333.19, 161.5 241.48, 273.11 111.53 M1.89 429.62 C66.38 355.93, 129.63 284.2, 272.84 117.93 M1.89 429.62 C59.34 363.11, 116.95 296.32, 272.84 117.93 M1.63 436.02 C58.29 369.8, 116.04 303.68, 273.24 123.57 M1.63 436.02 C90.8 333.51, 180.94 229.28, 273.24 123.57 M2.02 441.66 C97.78 333.5, 192.42 223.32, 272.98 129.97 M2.02 441.66 C64.25 369.84, 125.38 299.89, 272.98 129.97 M1.76 448.06 C88.58 349.48, 174.11 250.61, 272.72 136.37 M1.76 448.06 C104.01 327.67, 207.38 208.51, 272.72 136.37 M1.5 454.46 C93.83 346.81, 187.9 239.06, 273.11 142.01 M1.5 454.46 C80.34 364.03, 159.01 273.76, 273.11 142.01 M1.9 460.1 C69.99 378.06, 139.72 300.13, 272.85 148.41 M1.9 460.1 C86.47 361.55, 170.97 263.6, 272.85 148.41 M1.64 466.5 C77.16 381.82, 151.2 294.85, 273.24 154.05 M1.64 466.5 C107.1 345.49, 211.12 224.39, 273.24 154.05 M2.03 472.14 C70.73 393.9, 138.71 316.07, 272.98 160.45 M2.03 472.14 C75.4 387.75, 149.11 304.23, 272.98 160.45 M1.77 478.54 C78.35 392.79, 152.18 307.31, 272.72 166.85 M1.77 478.54 C71.46 396.91, 140.67 316.76, 272.72 166.85 M1.51 484.94 C83.66 390.52, 166.74 296.2, 273.12 172.49 M1.51 484.94 C68.53 407.08, 136.59 329.19, 273.12 172.49 M1.9 490.58 C103.76 376.12, 204.21 259.1, 272.85 178.89 M1.9 490.58 C63.69 421.12, 123.45 352.8, 272.85 178.89 M1.64 496.98 C60.33 431.6, 118 364.46, 273.25 184.53 M1.64 496.98 C90.52 396.8, 177.4 296.51, 273.25 184.53 M2.03 502.62 C77.8 417.27, 151.64 330.68, 272.99 190.93 M2.03 502.62 C96.96 395.63, 191.08 285.91, 272.99 190.93 M1.77 509.02 C93.92 401.76, 188.35 292.62, 272.73 197.33 M1.77 509.02 C63.09 438.45, 124.8 368.75, 272.73 197.33 M1.51 515.42 C100.85 398.65, 203.89 282.39, 273.12 202.97 M1.51 515.42 C80.74 425.48, 158.06 335.64, 273.12 202.97 M1.91 521.06 C73.13 436.84, 147.13 352.44, 272.86 209.37 M1.91 521.06 C99.23 409.5, 197.28 297.86, 272.86 209.37 M1.64 527.46 C94.61 420.36, 187.27 312.89, 273.25 215.01 M1.64 527.46 C68.68 451.72, 134.06 375.98, 273.25 215.01 M2.04 533.1 C91.14 433.1, 179.28 330.91, 272.99 221.41 M2.04 533.1 C108.55 412.88, 214.02 291.45, 272.99 221.41 M1.78 539.5 C98.26 430.56, 193.69 320.58, 272.73 227.81 M1.78 539.5 C107.67 418.58, 212.69 296.97, 272.73 227.81 M1.52 545.9 C64.15 470.4, 129.45 397.8, 273.12 233.45 M1.52 545.9 C69.77 466.94, 137.36 389.9, 273.12 233.45 M1.91 551.54 C66.92 478.06, 131.69 403.5, 272.86 239.85 M1.91 551.54 C73.29 468.83, 146.13 385.22, 272.86 239.85 M1.65 557.94 C89.64 457.83, 176.12 358.47, 273.26 245.49 M1.65 557.94 C89.93 453.95, 180.91 350.15, 273.26 245.49 M2.04 563.58 C94.97 458.11, 185.14 354.86, 273 251.89 M2.04 563.58 C106.34 442.86, 211.4 322.87, 273 251.89 M1.78 569.98 C73.25 484.68, 146.79 400.05, 272.74 258.29 M1.78 569.98 C83.95 473, 167.86 377.47, 272.74 258.29 M1.52 576.38 C71.23 496.36, 139.91 415.42, 273.13 263.93 M1.52 576.38 C58.72 513.41, 114.95 448.13, 273.13 263.93 M1.92 582.02 C102.63 464.08, 204.52 347.34, 272.87 270.33 M1.92 582.02 C81.36 489.55, 162.28 397.04, 272.87 270.33 M1.65 588.42 C82.08 495.89, 163.28 402.56, 273.26 275.97 M1.65 588.42 C102.9 471.02, 204.3 354.54, 273.26 275.97 M2.05 594.06 C80.32 501.77, 160.88 409.39, 273 282.37 M2.05 594.06 C84.41 500.48, 165.46 406.53, 273 282.37 M1.79 600.46 C69.95 524.26, 138.04 446.64, 272.74 288.76 M1.79 600.46 C78.83 510.28, 157.04 420.85, 272.74 288.76 M0.21 608.37 C76.29 519.96, 152.82 431.92, 273.13 294.41 M0.21 608.37 C104.95 490.16, 207.6 372.29, 273.13 294.41 M1.26 613.26 C99.81 499.12, 200.38 383.91, 272.87 300.81 M1.26 613.26 C87.69 514.26, 173.18 415.8, 272.87 300.81 M1.66 618.9 C99.64 507.08, 199.37 393.08, 273.27 306.45 M1.66 618.9 C70.49 542.17, 138.42 464.6, 273.27 306.45 M3.37 623.03 C61.47 558.55, 121.07 490.77, 273.01 312.85 M3.37 623.03 C108.74 502.3, 213.62 380.67, 273.01 312.85 M4.42 627.92 C103.28 512.51, 203.01 398.71, 272.74 319.24 M4.42 627.92 C87.63 532.18, 171.68 435.45, 272.74 319.24 M7.44 630.54 C66.76 562.12, 124.22 495.27, 273.14 324.89 M7.44 630.54 C64.87 566.28, 122.38 500.12, 273.14 324.89 M10.45 633.17 C87.94 542.72, 165.63 452.49, 272.88 331.29 M10.45 633.17 C69.22 565.78, 127.31 499.08, 272.88 331.29 M13.47 635.79 C93.7 541.77, 173.28 450.39, 273.27 336.93 M13.47 635.79 C78.76 562.22, 143.57 488.49, 273.27 336.93 M17.15 637.66 C103.46 539.58, 190.49 438.32, 273.01 343.33 M17.15 637.66 C94.97 551.2, 171.18 463.1, 273.01 343.33 M21.48 638.78 C93.25 557.16, 166.21 475.2, 272.75 349.72 M21.48 638.78 C102.23 545.5, 183.73 450.72, 272.75 349.72 M25.81 639.89 C89.64 567.63, 153.28 492.4, 273.14 355.37 M25.81 639.89 C106.66 545.01, 188.13 451.41, 273.14 355.37 M30.8 640.25 C86.2 575.74, 140.78 512.48, 272.88 361.76 M30.8 640.25 C87.31 572.51, 144.65 506.37, 272.88 361.76 M34.47 642.12 C86.78 581.75, 138.49 520.15, 273.28 367.41 M34.47 642.12 C125.99 538.79, 214.51 435.92, 273.28 367.41 M40.11 641.73 C117.48 551.63, 193.14 464.6, 273.02 373.81 M40.11 641.73 C120.55 547.56, 202.34 454.22, 273.02 373.81 M45.1 642.09 C125.54 550.12, 207.06 453.32, 272.75 380.2 M45.1 642.09 C123.28 550.85, 203.12 458.67, 272.75 380.2 M50.09 642.45 C101.2 583.26, 153.51 524.65, 273.15 385.85 M50.09 642.45 C138.04 542.89, 226.14 442.79, 273.15 385.85 M55.73 642.05 C100.01 591.06, 146.27 539.68, 272.89 392.24 M55.73 642.05 C106.74 581.21, 157.44 522.7, 272.89 392.24 M60.72 642.41 C124.52 572.7, 185.44 502.1, 273.28 397.89 M60.72 642.41 C113.72 579.39, 167.28 518.21, 273.28 397.89 M66.36 642.02 C119.89 580.48, 174.53 516.76, 273.02 404.28 M66.36 642.02 C128.04 574.5, 186.88 504.77, 273.02 404.28 M71.35 642.38 C136.45 569.37, 199.91 496.78, 272.76 410.68 M71.35 642.38 C149.31 551.81, 227 463.13, 272.76 410.68 M76.99 641.98 C122.54 590.46, 168.98 536.01, 273.15 416.33 M76.99 641.98 C120.43 591.59, 164.28 540.43, 273.15 416.33 M81.98 642.34 C127.1 589.79, 171.69 538.43, 272.89 422.72 M81.98 642.34 C126.51 593.75, 169.25 543.29, 272.89 422.72 M87.62 641.95 C160.96 560.23, 231.08 478.32, 273.29 428.37 M87.62 641.95 C128.44 594.19, 169.84 546.78, 273.29 428.37 M92.61 642.31 C132.91 595.29, 174.87 549.03, 273.03 434.76 M92.61 642.31 C158.64 566.84, 222.97 492.68, 273.03 434.76 M98.25 641.91 C167.52 562.5, 235.17 485.5, 272.76 441.16 M98.25 641.91 C155.95 576.79, 215.42 508.79, 272.76 441.16 M103.24 642.28 C167.85 566.08, 234.8 487.61, 273.16 446.81 M103.24 642.28 C160.99 576.61, 217.95 511.61, 273.16 446.81 M108.88 641.88 C157.22 587.39, 206.14 533.93, 272.9 453.2 M108.88 641.88 C153.28 590.81, 197.49 540.2, 272.9 453.2 M113.87 642.24 C158.63 593.45, 202.44 539.69, 273.29 458.85 M113.87 642.24 C159.2 592.98, 203.85 541.67, 273.29 458.85 M119.51 641.85 C165.99 585.16, 216.46 529.4, 273.03 465.24 M119.51 641.85 C149.93 606.49, 181.92 569.31, 273.03 465.24 M124.5 642.21 C173.69 583.75, 225.28 526.2, 272.77 471.64 M124.5 642.21 C167.22 594.51, 207.44 547.5, 272.77 471.64 M130.14 641.81 C171.53 593.21, 212.97 545.82, 273.16 477.28 M130.14 641.81 C186.29 579.27, 241.84 514.6, 273.16 477.28 M135.13 642.17 C178.93 593.65, 222.67 544.5, 272.9 483.68 M135.13 642.17 C187.86 581.86, 240.7 520.8, 272.9 483.68 M140.77 641.78 C166.99 609.8, 195.47 579.35, 273.3 489.33 M140.77 641.78 C183.74 590.99, 228.03 540.61, 273.3 489.33 M145.76 642.14 C172.54 610.31, 198.05 580.17, 273.04 495.72 M145.76 642.14 C172.42 611.49, 200.21 580.05, 273.04 495.72 M151.4 641.74 C182.05 607.31, 210.18 572.68, 272.77 502.12 M151.4 641.74 C176.45 611.72, 201.35 584.04, 272.77 502.12 M156.39 642.1 C196.02 596.46, 232.89 551.69, 273.17 507.76 M156.39 642.1 C198.4 594.51, 240.12 545.42, 273.17 507.76 M162.03 641.71 C206.32 592.65, 248.43 544.91, 272.91 514.16 M162.03 641.71 C192.34 610.46, 219.29 576.89, 272.91 514.16 M167.02 642.07 C195.56 611.98, 222.97 578.67, 273.3 519.81 M167.02 642.07 C205.2 598.31, 243.15 556.85, 273.3 519.81 M172.01 642.43 C209.76 599.99, 248.3 556.01, 273.04 526.2 M172.01 642.43 C210.74 597.59, 249.85 554.4, 273.04 526.2 M177.65 642.03 C202.42 609.27, 229.73 580.08, 272.78 532.6 M177.65 642.03 C208.44 607.44, 238.15 574.63, 272.78 532.6 M182.64 642.39 C214.15 608.24, 245.75 569.7, 273.17 538.24 M182.64 642.39 C215.81 603.42, 250.15 564.71, 273.17 538.24 M188.28 642 C215.5 610.37, 246.55 577.91, 272.91 544.64 M188.28 642 C218.19 610.39, 246.29 578.15, 272.91 544.64 M193.27 642.36 C212.6 620.8, 231.86 597.76, 273.31 550.28 M193.27 642.36 C213.95 618.84, 233.85 597.51, 273.31 550.28 M198.91 641.96 C217.66 618, 241.56 593.09, 273.04 556.68 M198.91 641.96 C217.33 621.3, 237.12 600.15, 273.04 556.68 M203.9 642.32 C226.46 615.34, 249.5 586.24, 272.78 563.08 M203.9 642.32 C226.63 617.91, 247.23 593.66, 272.78 563.08 M209.54 641.93 C221.47 626.4, 235.66 611.29, 273.18 568.72 M209.54 641.93 C226.41 621.29, 244.82 600.87, 273.18 568.72 M214.53 642.29 C234.38 618.94, 256.31 596.46, 272.92 575.12 M214.53 642.29 C234.88 619.01, 255.36 595.65, 272.92 575.12 M220.17 641.9 C238.29 621.89, 257.8 597.07, 273.31 580.76 M220.17 641.9 C240.45 619.14, 261.7 593.72, 273.31 580.76 M225.16 642.26 C241.88 622.08, 257.75 603.47, 273.05 587.16 M225.16 642.26 C244.69 621.01, 263.31 600.14, 273.05 587.16 M230.8 641.86 C248.31 622.99, 264.81 604.8, 272.79 593.56 M230.8 641.86 C245.16 626.56, 258.5 608.73, 272.79 593.56 M235.79 642.22 C250.1 627.29, 265.33 608.5, 273.18 599.2 M235.79 642.22 C248.17 628.08, 260.95 615.33, 273.18 599.2 M242.09 641.07 C251.81 629.13, 262.3 617.71, 272.92 605.6 M242.09 641.07 C248.46 633.91, 254.33 624.93, 272.92 605.6 M247.73 640.68 C256.4 633.01, 264.52 620.24, 274.63 609.73 M247.73 640.68 C255.45 629.51, 264.44 620.6, 274.63 609.73 M255.34 638.02 C263.38 631.57, 270.14 621.95, 273.71 616.89 M255.34 638.02 C261.56 631.62, 266.43 624.93, 273.71 616.89" stroke="#a9a9b2" stroke-width="0.5" fill="none"></path><path d="M32 0 C116.11 0.89, 196.89 -0.78, 240.51 0 M32 0 C113.64 -0.69, 196.88 -1.04, 240.51 0 M240.51 0 C260.41 1.6, 270.8 9.13, 272.51 32 M240.51 0 C262.1 -2.17, 271 8.69, 272.51 32 M272.51 32 C270.48 197.3, 270.62 361.89, 272.51 607.91 M272.51 32 C273.77 256.39, 273.79 480.86, 272.51 607.91 M272.51 607.91 C272.5 627.94, 263.39 639.39, 240.51 639.91 M272.51 607.91 C274.47 630.5, 260.92 638.55, 240.51 639.91 M240.51 639.91 C183.53 641.95, 124.25 641.4, 32 639.91 M240.51 639.91 C179.93 639.83, 120.82 639.52, 32 639.91 M32 639.91 C11.19 641.75, 1.93 629.18, 0 607.91 M32 639.91 C9.08 639.83, 0.11 627.24, 0 607.91 M0 607.91 C0.73 383.12, 1.38 157.34, 0 32 M0 607.91 C2.48 443.44, 2.27 279.62, 0 32 M0 32 C-1.4 8.85, 10.45 -0.51, 32 0 M0 32 C-0.75 9.11, 10.64 1.01, 32 0" stroke="#a9a9b2" stroke-width="1" fill="none"></path></g><g stroke-opacity="0.5" fill-opacity="0.5" stroke-linecap="round" transform="translate(883.9634399414062 56.460296630859375) rotate(0 140 330.5614558628627)"><path d="M7.86 8.16 C7.86 8.16, 7.86 8.16, 7.86 8.16 M7.86 8.16 C7.86 8.16, 7.86 8.16, 7.86 8.16 M3.66 19.09 C8.26 15.73, 11.07 11.24, 18.1 2.48 M3.66 19.09 C8.16 14.47, 11.03 11.2, 18.1 2.48 M2.75 26.24 C6.63 20.83, 15.48 12.24, 24.4 1.33 M2.75 26.24 C10.35 17.94, 15.65 10.13, 24.4 1.33 M1.83 33.39 C11.41 25.9, 19.64 15.17, 30.7 0.18 M1.83 33.39 C9.07 25.6, 14.94 17.88, 30.7 0.18 M1.57 39.79 C9.77 27.14, 19.62 18.78, 34.37 2.05 M1.57 39.79 C9.35 31.41, 18.28 20.99, 34.37 2.05 M1.96 45.43 C14.17 34.46, 24.12 21.79, 39.36 2.41 M1.96 45.43 C12.93 33.12, 22.65 23.04, 39.36 2.41 M1.7 51.83 C12.69 40.9, 20.43 29.9, 45 2.02 M1.7 51.83 C19.72 31.6, 35.72 12.38, 45 2.02 M1.44 58.23 C16.45 39.77, 30.26 21.51, 49.99 2.38 M1.44 58.23 C17.98 40.04, 32.94 21.77, 49.99 2.38 M1.83 63.87 C20.13 44.95, 35.77 28.26, 55.63 1.98 M1.83 63.87 C13.47 51.16, 24.52 36.55, 55.63 1.98 M1.57 70.27 C23.56 44.57, 49.41 17.22, 60.62 2.34 M1.57 70.27 C17.78 52.09, 33.83 33.05, 60.62 2.34 M1.97 75.91 C15.4 58.73, 31.57 39.34, 66.26 1.95 M1.97 75.91 C16.25 59.79, 29.86 42.96, 66.26 1.95 M1.71 82.31 C24.59 54.43, 49.45 27.87, 71.25 2.31 M1.71 82.31 C16.92 62.67, 33.27 45.13, 71.25 2.31 M1.44 88.71 C32.61 54.26, 60.19 19.91, 76.89 1.91 M1.44 88.71 C18.67 68.56, 35.46 47.54, 76.89 1.91 M1.84 94.35 C28.9 64.88, 57.72 32.01, 81.88 2.27 M1.84 94.35 C24.11 70.01, 44.71 47.38, 81.88 2.27 M1.58 100.75 C20.77 80.11, 37.76 56.2, 87.52 1.88 M1.58 100.75 C29.14 67.15, 57.65 35.64, 87.52 1.88 M1.97 106.39 C29.37 75.57, 57.25 42.16, 92.51 2.24 M1.97 106.39 C22.56 82.85, 42.72 59.46, 92.51 2.24 M1.71 112.79 C20.45 88.23, 41.47 68.34, 98.15 1.85 M1.71 112.79 C29.39 80.31, 58.99 46.74, 98.15 1.85 M1.45 119.19 C41.61 74.09, 82.45 28.01, 103.14 2.21 M1.45 119.19 C38.27 77.66, 74.84 35.65, 103.14 2.21 M1.84 124.83 C36.11 87.38, 65.9 49.3, 108.12 2.57 M1.84 124.83 C23.78 100.2, 46.38 74.84, 108.12 2.57 M1.58 131.23 C29.59 101.5, 57.28 66.22, 113.77 2.17 M1.58 131.23 C35.92 92.25, 69.13 52.59, 113.77 2.17 M1.98 136.87 C44.86 84.9, 87.68 35.75, 118.76 2.53 M1.98 136.87 C47.3 86.51, 90.62 34.8, 118.76 2.53 M1.72 143.27 C40.77 98.6, 80.07 54.17, 124.4 2.14 M1.72 143.27 C34.7 106.91, 65.68 69.44, 124.4 2.14 M1.45 149.67 C39.52 105.77, 78.22 62.69, 129.39 2.5 M1.45 149.67 C35.23 110.07, 69.37 73.42, 129.39 2.5 M1.85 155.31 C55.21 96.88, 105.71 34.38, 135.03 2.1 M1.85 155.31 C31.64 118.9, 61.51 84.19, 135.03 2.1 M1.59 161.71 C32.74 122.37, 66.41 85.87, 140.02 2.46 M1.59 161.71 C50.01 105.77, 99.63 48.57, 140.02 2.46 M1.98 167.35 C40.47 122.88, 76.79 80.39, 145.66 2.07 M1.98 167.35 C59.42 102.06, 118.14 36.3, 145.66 2.07 M1.72 173.75 C33.75 137.13, 67.83 99.66, 150.65 2.43 M1.72 173.75 C44.6 126.49, 86.01 78.24, 150.65 2.43 M1.46 180.14 C41.14 133.56, 77.76 90.3, 156.29 2.03 M1.46 180.14 C51.38 122.21, 101.23 64.05, 156.29 2.03 M1.85 185.79 C58.96 121.51, 114.46 59.54, 161.28 2.39 M1.85 185.79 C48.08 132.25, 94.51 78.18, 161.28 2.39 M1.59 192.19 C45.91 142.94, 91.4 91.58, 166.92 2 M1.59 192.19 C63.33 121.74, 123.92 52.51, 166.92 2 M1.99 197.83 C66.95 124.25, 129.43 50.66, 171.91 2.36 M1.99 197.83 C66.96 121.91, 132.81 48.57, 171.91 2.36 M1.72 204.23 C66.6 128.24, 133.84 50.72, 176.89 2.72 M1.72 204.23 C45.85 153.14, 91.74 101.25, 176.89 2.72 M1.46 210.62 C62.13 139.75, 124.31 68.5, 182.54 2.32 M1.46 210.62 C70.49 130.67, 141.91 49.07, 182.54 2.32 M1.86 216.27 C42.05 170.8, 82.48 122.4, 187.52 2.68 M1.86 216.27 C59.97 151.51, 116.5 86.99, 187.52 2.68 M1.6 222.66 C61.98 152.73, 122.48 82.1, 193.17 2.29 M1.6 222.66 C49.83 168.96, 98.06 112.89, 193.17 2.29 M1.99 228.31 C77.13 142.39, 152.42 56.65, 198.15 2.65 M1.99 228.31 C45.33 177.37, 90.64 126.07, 198.15 2.65 M1.73 234.71 C54.74 172.28, 109.65 109.21, 203.8 2.26 M1.73 234.71 C79.59 142.69, 159 52.54, 203.8 2.26 M1.47 241.1 C50.94 184.03, 98.89 129.31, 208.78 2.62 M1.47 241.1 C63.39 167.9, 125.7 96.31, 208.78 2.62 M1.86 246.75 C48.66 191.31, 95.82 139.13, 214.43 2.22 M1.86 246.75 C68.96 169.12, 134.66 93.74, 214.43 2.22 M1.6 253.14 C69.2 172.83, 137.03 94.31, 219.41 2.58 M1.6 253.14 C47.22 203.37, 90.85 152.52, 219.41 2.58 M2 258.79 C57.81 191.84, 116.65 125.53, 225.06 2.19 M2 258.79 C48.55 208.74, 93.31 156.12, 225.06 2.19 M1.73 265.19 C72.84 182.17, 142.66 101.21, 230.04 2.55 M1.73 265.19 C89.48 162.72, 179.44 59.86, 230.04 2.55 M1.47 271.58 C78.13 181.34, 158.11 91.54, 235.69 2.15 M1.47 271.58 C80.31 180.11, 158.9 89.87, 235.69 2.15 M1.87 277.23 C69.96 200.83, 137.26 122.54, 240.67 2.51 M1.87 277.23 C73.7 192.96, 146.29 109.33, 240.67 2.51 M1.61 283.62 C66.82 207.28, 133.34 129.18, 245.66 2.87 M1.61 283.62 C69.07 206.28, 136.2 129.71, 245.66 2.87 M2 289.27 C70.5 214.13, 134.35 138.27, 251.3 2.48 M2 289.27 C94.31 183.11, 185.05 79.13, 251.3 2.48 M1.74 295.66 C93.69 191.82, 184.25 89.57, 256.95 2.08 M1.74 295.66 C65.81 219.68, 131.41 144.94, 256.95 2.08 M1.48 302.06 C65.14 227.68, 126.74 155.93, 261.93 2.44 M1.48 302.06 C102.22 185.93, 203.19 70.12, 261.93 2.44 M1.87 307.71 C87.18 205.86, 173.32 106.06, 265.61 4.31 M1.87 307.71 C56.92 245.4, 111.53 182.22, 265.61 4.31 M1.61 314.1 C103.95 195.72, 205.56 79.15, 269.28 6.18 M1.61 314.1 C99.16 202.34, 197.01 90.98, 269.28 6.18 M2.01 319.75 C62.6 250.32, 120.7 182.95, 272.3 8.81 M2.01 319.75 C92.92 213.1, 186.3 107.26, 272.3 8.81 M1.74 326.14 C109.51 201.47, 217.8 74.68, 274.66 12.19 M1.74 326.14 C75.22 242.28, 150.42 156.91, 274.66 12.19 M1.48 332.54 C84.21 239.3, 166.56 143.76, 277.03 15.56 M1.48 332.54 C99.66 219.88, 197.17 107.47, 277.03 15.56 M1.88 338.19 C109.14 214.96, 216.32 91.4, 279.39 18.94 M1.88 338.19 C77.48 251.78, 153.55 163.56, 279.39 18.94 M1.62 344.58 C91.41 240.27, 180.38 139.56, 279.78 24.59 M1.62 344.58 C62.97 271.58, 124.43 200.22, 279.78 24.59 M2.01 350.23 C58.12 285.3, 115.75 218.07, 280.84 29.47 M2.01 350.23 C90.21 248.81, 178.29 147.05, 280.84 29.47 M1.75 356.62 C84.96 261.58, 166.19 167.77, 282.54 33.61 M1.75 356.62 C61.91 287.63, 122.81 218.47, 282.54 33.61 M1.49 363.02 C76.17 276.02, 150.29 189.36, 282.28 40.01 M1.49 363.02 C95.8 254.75, 190.5 146.21, 282.28 40.01 M1.88 368.66 C88.02 271.19, 172.74 175.22, 282.02 46.4 M1.88 368.66 C78.4 278.5, 155.66 189.65, 282.02 46.4 M1.62 375.06 C103.17 258.79, 205.13 139.8, 282.41 52.05 M1.62 375.06 C69.22 296.97, 137.3 219.33, 282.41 52.05 M2.02 380.71 C81.55 287.75, 161.9 196.84, 282.15 58.44 M2.02 380.71 C69.69 302.12, 137.07 224.24, 282.15 58.44 M1.75 387.1 C74.46 304.85, 144.3 225.75, 282.55 64.09 M1.75 387.1 C95.22 279.87, 188.76 172.09, 282.55 64.09 M1.49 393.5 C73.43 311.23, 146.88 226.09, 282.29 70.49 M1.49 393.5 C64.18 321.12, 127.43 248.32, 282.29 70.49 M1.89 399.14 C67.67 324.21, 135.53 246.73, 282.02 76.88 M1.89 399.14 C85.38 300.59, 169.65 203.19, 282.02 76.88 M1.63 405.54 C84.74 311.42, 166.96 216.85, 282.42 82.53 M1.63 405.54 C68.37 329.55, 134.11 254.42, 282.42 82.53 M2.02 411.18 C61.25 342.43, 120.62 273.14, 282.16 88.92 M2.02 411.18 C60.8 342.76, 120.25 274.52, 282.16 88.92 M1.76 417.58 C94.37 311.79, 187.3 203.86, 282.55 94.57 M1.76 417.58 C100.62 305.18, 198.91 191.49, 282.55 94.57 M1.5 423.98 C65.83 349.35, 129.1 277.27, 282.29 100.96 M1.5 423.98 C91.64 321.87, 180.51 219.41, 282.29 100.96 M1.89 429.62 C107.74 305.14, 214.42 181.95, 282.03 107.36 M1.89 429.62 C97.65 318.28, 194.53 207.06, 282.03 107.36 M1.63 436.02 C83.35 342.56, 164.66 249.47, 282.42 113.01 M1.63 436.02 C72.63 351.65, 144.63 269.91, 282.42 113.01 M2.02 441.66 C89.83 340.05, 176.45 238.97, 282.16 119.4 M2.02 441.66 C79.63 353.98, 156.16 265.07, 282.16 119.4 M1.76 448.06 C110.97 323.35, 217.99 197.5, 282.56 125.05 M1.76 448.06 C72.98 367.41, 143.19 286.83, 282.56 125.05 M1.5 454.46 C77.13 366.99, 154.21 280.73, 282.3 131.44 M1.5 454.46 C80.31 365.43, 157.19 276.73, 282.3 131.44 M1.9 460.1 C74.18 375.75, 145.07 293.18, 282.03 137.84 M1.9 460.1 C87.1 362.64, 172.59 264.9, 282.03 137.84 M1.64 466.5 C70.79 386.12, 141.66 305.35, 282.43 143.49 M1.64 466.5 C106.97 347.57, 211.34 226.81, 282.43 143.49 M2.03 472.14 C66.31 400.39, 128.09 330.14, 282.17 149.88 M2.03 472.14 C62.58 404.24, 122.04 335.47, 282.17 149.88 M1.77 478.54 C93.97 375.03, 183.19 271.72, 282.56 155.53 M1.77 478.54 C79.87 389.86, 156.69 300.7, 282.56 155.53 M1.51 484.94 C100.02 374.39, 197.12 259.92, 282.3 161.92 M1.51 484.94 C97.53 373.45, 195.19 260.85, 282.3 161.92 M1.9 490.58 C65.22 417.22, 129.5 345.77, 282.04 168.32 M1.9 490.58 C104.96 369.85, 210.31 249.74, 282.04 168.32 M1.64 496.98 C83.86 403.92, 163.2 310.9, 282.43 173.96 M1.64 496.98 C76.03 409.54, 152.15 322.33, 282.43 173.96 M2.03 502.62 C102.39 387, 204.32 271.94, 282.17 180.36 M2.03 502.62 C97.61 392.09, 193.8 281.01, 282.17 180.36 M1.77 509.02 C71.12 430.8, 138.26 352.55, 282.57 186.01 M1.77 509.02 C93.97 404.82, 184.87 299.88, 282.57 186.01 M1.51 515.42 C112.19 390.63, 221.39 264.84, 282.3 192.4 M1.51 515.42 C101.47 401.94, 200.32 288.12, 282.3 192.4 M1.91 521.06 C111.69 396.4, 219.72 270.57, 282.04 198.8 M1.91 521.06 C66.86 443.71, 133.34 368.45, 282.04 198.8 M1.64 527.46 C71.99 445.57, 141.98 366.42, 282.44 204.44 M1.64 527.46 C69.35 451.2, 136.39 374.05, 282.44 204.44 M2.04 533.1 C75.75 447.57, 151.13 361.2, 282.18 210.84 M2.04 533.1 C92.18 430.09, 181.41 327.51, 282.18 210.84 M1.78 539.5 C92.72 432.21, 187.29 325.08, 282.57 216.49 M1.78 539.5 C97.52 430.68, 191.29 323.04, 282.57 216.49 M1.52 545.9 C109.11 420.93, 218.86 296.32, 282.31 222.88 M1.52 545.9 C76.06 457.29, 152.29 369.58, 282.31 222.88 M1.91 551.54 C86.41 451.19, 173.98 352.37, 282.05 229.28 M1.91 551.54 C73.85 468.58, 145.06 385.74, 282.05 229.28 M1.65 557.94 C60.74 493.27, 118.86 425.27, 282.44 234.92 M1.65 557.94 C106.29 435.76, 211.67 314.76, 282.44 234.92 M2.04 563.58 C84.15 468.23, 168.06 372.78, 282.18 241.32 M2.04 563.58 C85.07 467.98, 168.72 371.79, 282.18 241.32 M1.78 569.98 C106.16 448.88, 210.46 329.2, 281.92 247.72 M1.78 569.98 C82.96 474.4, 165.72 379.32, 281.92 247.72 M1.52 576.38 C87.31 479.85, 170.86 382.38, 282.31 253.36 M1.52 576.38 C72.23 497.46, 142.11 417.4, 282.31 253.36 M1.92 582.02 C81.46 488.85, 162.41 396.76, 282.05 259.76 M1.92 582.02 C79.98 491.66, 158.35 401.49, 282.05 259.76 M1.65 588.42 C109.67 466.61, 215.17 345.67, 282.45 265.4 M1.65 588.42 C103.56 470.03, 207.23 351.01, 282.45 265.4 M2.05 594.06 C91.4 492.09, 179.18 390.89, 282.19 271.8 M2.05 594.06 C103.2 478.2, 205.78 360.55, 282.19 271.8 M1.79 600.46 C72.79 521.25, 142.87 441.72, 281.92 278.2 M1.79 600.46 C62.67 533.07, 123.57 463.39, 281.92 278.2 M1.53 606.86 C111.75 481.51, 220.2 354.9, 282.32 283.84 M1.53 606.86 C105.56 485.99, 209.8 366.51, 282.32 283.84 M1.92 612.5 C88.42 512.48, 176.36 411.25, 282.06 290.24 M1.92 612.5 C64.09 540.23, 125.4 469.34, 282.06 290.24 M1.66 618.9 C62.21 550.88, 123.31 480.59, 282.45 295.88 M1.66 618.9 C84.68 522.6, 168.34 425.96, 282.45 295.88 M2.05 624.54 C65.08 552.78, 127.2 481.56, 282.19 302.28 M2.05 624.54 C88.41 523.55, 174.62 424.44, 282.19 302.28 M1.79 630.94 C71.84 551.22, 141.8 472.26, 281.93 308.68 M1.79 630.94 C96.45 522.83, 191.45 413.04, 281.93 308.68 M2.84 635.83 C87.86 541.33, 171.11 444.79, 282.32 314.32 M2.84 635.83 C83.04 544.47, 162.89 453.49, 282.32 314.32 M3.24 641.47 C93.03 538.07, 183.34 432.37, 282.06 320.72 M3.24 641.47 C75.07 559.47, 147.26 475.54, 282.06 320.72 M4.94 645.6 C96.12 539.1, 187.25 434.48, 282.46 326.36 M4.94 645.6 C68.25 572.06, 131.88 498.66, 282.46 326.36 M6 650.49 C70.75 573.48, 135.89 498.25, 282.2 332.76 M6 650.49 C66.6 580.05, 127.08 509.58, 282.2 332.76 M9.01 653.12 C113.69 534.82, 214.24 417.36, 281.93 339.16 M9.01 653.12 C99.27 548.39, 188.71 445.5, 281.93 339.16 M12.03 655.74 C105.4 546.13, 200.21 438.34, 282.33 344.8 M12.03 655.74 C108.02 545.38, 205.23 432.29, 282.33 344.8 M15.05 658.37 C106.56 551.68, 200.45 443.1, 282.07 351.2 M15.05 658.37 C77.05 587.67, 139.55 516.44, 282.07 351.2 M18.73 660.23 C122.54 542.5, 227.09 424.35, 282.46 356.84 M18.73 660.23 C72.86 598.81, 127.74 536.45, 282.46 356.84 M23.06 661.35 C84.26 588.81, 144.38 519.32, 282.2 363.24 M23.06 661.35 C99.63 576.18, 174.02 490.38, 282.2 363.24 M26.73 663.22 C90 587.45, 154.44 514.05, 281.94 369.64 M26.73 663.22 C93.19 586.5, 160.75 508.44, 281.94 369.64 M33.03 662.07 C107.56 580.47, 177.95 496.05, 282.33 375.28 M33.03 662.07 C112.84 572.09, 191.64 481.62, 282.33 375.28 M38.67 661.68 C133.24 552.05, 226.94 445.43, 282.07 381.68 M38.67 661.68 C95.57 596.79, 152.5 530.87, 282.07 381.68 M43.66 662.04 C97.16 600.79, 150.31 538.43, 282.47 387.32 M43.66 662.04 C100.21 597.29, 155.86 533.25, 282.47 387.32 M48.65 662.4 C102.89 602.97, 154.94 540.87, 282.21 393.72 M48.65 662.4 C140.11 558.89, 229.71 455.3, 282.21 393.72 M54.29 662 C104.61 603.29, 155.2 545.47, 281.94 400.12 M54.29 662 C106.36 602.67, 159.09 542.86, 281.94 400.12 M59.28 662.36 C140.74 568.97, 220.28 477.2, 282.34 405.76 M59.28 662.36 C146.55 561.45, 233.37 461.93, 282.34 405.76 M64.92 661.97 C136.38 581.07, 210.88 496.08, 282.08 412.16 M64.92 661.97 C148.89 564.18, 234.13 465.5, 282.08 412.16 M69.91 662.33 C142.23 580.6, 213.6 499.4, 282.47 417.8 M69.91 662.33 C132.31 591.68, 194.45 521.39, 282.47 417.8 M75.55 661.93 C131.89 597.21, 187.65 533.49, 282.21 424.2 M75.55 661.93 C133.78 597.28, 191.11 529.89, 282.21 424.2 M80.54 662.29 C137.48 600.18, 193.99 535.26, 281.95 430.6 M80.54 662.29 C142.55 588.84, 207.11 515.56, 281.95 430.6 M86.18 661.9 C125 616.71, 166.04 568.83, 282.34 436.24 M86.18 661.9 C152.71 584.26, 219.98 507.64, 282.34 436.24 M91.17 662.26 C146.19 600.69, 197.5 540.36, 282.08 442.64 M91.17 662.26 C146.96 598.6, 201.94 535.49, 282.08 442.64 M96.81 661.86 C169.68 580.85, 241.67 496.69, 282.48 448.28 M96.81 661.86 C155.38 595.85, 213.42 529.58, 282.48 448.28 M101.8 662.22 C170.66 583.57, 239.79 503.55, 282.22 454.68 M101.8 662.22 C138.6 620.19, 175.67 578.54, 282.22 454.68 M107.44 661.83 C164.3 595.01, 222.76 528.76, 281.95 461.08 M107.44 661.83 C143.36 619.11, 178.95 577.86, 281.95 461.08 M112.43 662.19 C147.87 620.84, 185.09 578.87, 282.35 466.72 M112.43 662.19 C154.64 613.97, 195.4 566.17, 282.35 466.72 M118.07 661.79 C152.26 621.37, 185.86 584.29, 282.09 473.12 M118.07 661.79 C172.7 598.63, 225.83 536.56, 282.09 473.12 M123.06 662.15 C180.3 597.68, 237.4 530.19, 282.48 478.76 M123.06 662.15 C184.81 592.55, 245.61 522.89, 282.48 478.76 M128.7 661.76 C170.61 618.42, 207.5 571.65, 282.22 485.16 M128.7 661.76 C168.76 617.02, 208.82 570.19, 282.22 485.16 M133.69 662.12 C186.74 600.96, 239.97 543.5, 281.96 491.56 M133.69 662.12 C188.64 599.65, 244.13 535.97, 281.96 491.56 M139.33 661.73 C194.6 597.88, 250.02 537.26, 282.35 497.2 M139.33 661.73 C178.61 613.89, 219.02 568.38, 282.35 497.2 M144.32 662.09 C189.26 611.58, 232.19 564.61, 282.09 503.6 M144.32 662.09 C192.67 608.6, 240.68 552.4, 282.09 503.6 M149.96 661.69 C198.55 604.77, 249.12 548.02, 282.49 509.24 M149.96 661.69 C193.95 611.42, 239.78 560.15, 282.49 509.24 M154.95 662.05 C200.34 614.61, 242.5 566.31, 282.22 515.64 M154.95 662.05 C185.98 628.03, 216.13 592.9, 282.22 515.64 M159.94 662.41 C191.62 626.26, 222.13 594.28, 281.96 522.03 M159.94 662.41 C192.98 623.11, 228.01 584.1, 281.96 522.03 M165.58 662.02 C194.27 629.49, 225.93 596.33, 282.36 527.68 M165.58 662.02 C205.17 615.68, 244.55 569.09, 282.36 527.68 M170.57 662.38 C207.6 622.93, 240.53 583.95, 282.1 534.08 M170.57 662.38 C193.93 635.13, 217.52 608.59, 282.1 534.08 M176.21 661.98 C204.29 627.51, 235.27 593.38, 282.49 539.72 M176.21 661.98 C212.13 619.36, 249.96 577.21, 282.49 539.72 M181.2 662.34 C216.55 622.18, 251.98 581.83, 282.23 546.12 M181.2 662.34 C215.65 621.55, 251.57 579.03, 282.23 546.12 M186.84 661.95 C223.06 621.37, 261.18 575.55, 281.97 552.51 M186.84 661.95 C219.86 623.54, 252.07 586.32, 281.97 552.51 M191.83 662.31 C228.8 622.21, 264.02 582.79, 282.36 558.16 M191.83 662.31 C228.54 620.97, 264.43 580.09, 282.36 558.16 M197.47 661.91 C226.42 631.07, 253.31 595.14, 282.1 564.56 M197.47 661.91 C228.8 626.65, 261.14 588.8, 282.1 564.56 M202.46 662.27 C228.95 632.07, 256.2 604.63, 282.5 570.2 M202.46 662.27 C227.9 632.03, 253.9 602.43, 282.5 570.2 M208.1 661.88 C223.39 644.37, 237.82 623.33, 282.23 576.6 M208.1 661.88 C230.39 636.96, 252.34 610, 282.23 576.6 M213.09 662.24 C233.27 634.12, 256.17 610.64, 281.97 582.99 M213.09 662.24 C239.55 632.45, 265.87 601.24, 281.97 582.99 M218.73 661.84 C239.35 639.75, 257.36 616.87, 282.37 588.64 M218.73 661.84 C240.11 638.03, 261.05 613.55, 282.37 588.64 M223.72 662.2 C236.09 646.3, 249.64 631.64, 282.11 595.03 M223.72 662.2 C242.86 639.61, 262.13 619.03, 282.11 595.03 M229.36 661.81 C243.72 646.66, 255.45 629.5, 282.5 600.68 M229.36 661.81 C244.49 644.59, 261.05 625.72, 282.5 600.68 M234.35 662.17 C249.33 646.03, 266.65 626.81, 282.24 607.08 M234.35 662.17 C252.87 639.56, 272.45 617.72, 282.24 607.08 M239.99 661.77 C250.37 650.01, 261.13 635.47, 281.98 613.47 M239.99 661.77 C256.24 644.21, 271.34 624.98, 281.98 613.47 M244.98 662.13 C258.89 644.83, 272.99 628.57, 282.37 619.12 M244.98 662.13 C255.4 649.6, 265.63 638.5, 282.37 619.12 M249.96 662.49 C258.41 650.62, 267.17 640.77, 282.11 625.51 M249.96 662.49 C260.84 649.79, 273.99 635.9, 282.11 625.51 M255.61 662.1 C263.14 656.28, 268.58 647.92, 282.51 631.16 M255.61 662.1 C261.06 655.19, 267.34 648.95, 282.51 631.16 M262.56 660.2 C267.63 653.4, 271.8 646.9, 281.59 638.31 M262.56 660.2 C267.61 655.51, 271.07 650.54, 281.59 638.31" stroke="#a9a9b2" stroke-width="0.5" fill="none"></path><path d="M32 0 C96.66 -0.34, 158.05 1.23, 248 0 M32 0 C113.58 0.35, 193.51 -1.1, 248 0 M248 0 C269.26 0.1, 278.26 12.5, 280 32 M248 0 C268.43 -1.58, 279.51 12.95, 280 32 M280 32 C281.05 247.24, 282.55 460.91, 280 629.12 M280 32 C279.19 236.91, 279.45 441.79, 280 629.12 M280 629.12 C278.65 650.44, 270.21 662.53, 248 661.12 M280 629.12 C277.86 652.57, 271.31 660.32, 248 661.12 M248 661.12 C195.62 661.75, 142.21 664.32, 32 661.12 M248 661.12 C191.86 660.35, 133.97 660.46, 32 661.12 M32 661.12 C11.86 662.81, 1.51 651.28, 0 629.12 M32 661.12 C9.81 659.5, -0.12 652.64, 0 629.12 M0 629.12 C2.33 457.21, 2.25 285.67, 0 32 M0 629.12 C-0.68 393, -0.56 156.01, 0 32 M0 32 C0.31 12.12, 9.06 -0.62, 32 0 M0 32 C-2.07 12.22, 9.5 1.81, 32 0" stroke="#a9a9b2" stroke-width="1" fill="none"></path></g><g transform="translate(123.48171997070312 16.460296630859375) rotate(0 64 11.5)"><text x="0" y="18.400390625" font-family="Helvetica, Segoe UI Emoji" font-size="20px" fill="#a9a9b2" text-anchor="start" style="white-space: pre;" direction="ltr" dominant-baseline="alphabetic">Bob's browser</text></g><g transform="translate(86.70684814453125 71.46029663085938) rotate(0 81 23)"><text x="81" y="18.400390625" font-family="Helvetica, Segoe UI Emoji" font-size="20px" fill="#a9a9b2" text-anchor="middle" style="white-space: pre;" direction="ltr" dominant-baseline="alphabetic">Carol's client</text><text x="81" y="41.400390625" font-family="Helvetica, Segoe UI Emoji" font-size="20px" fill="#a9a9b2" text-anchor="middle" style="white-space: pre;" direction="ltr" dominant-baseline="alphabetic">(https://carol.com)</text></g><g transform="translate(939.4634399414062 72.72128295898438) rotate(0 84.5 23)"><text x="84.5" y="18.400390625" font-family="Helvetica, Segoe UI Emoji" font-size="20px" fill="#a9a9b2" text-anchor="middle" style="white-space: pre;" direction="ltr" dominant-baseline="alphabetic">Sarah's server</text><text x="84.5" y="41.400390625" font-family="Helvetica, Segoe UI Emoji" font-size="20px" fill="#a9a9b2" text-anchor="middle" style="white-space: pre;" direction="ltr" dominant-baseline="alphabetic">(https://sarah.com)</text></g><g transform="translate(43.70684814453125 307.4476623535156) rotate(0 124 74)"><text x="0" y="14.8203125" font-family="Helvetica, Segoe UI Emoji" font-size="16px" fill="#a9a9b2" text-anchor="start" style="white-space: pre;" direction="ltr" dominant-baseline="alphabetic">&lt;script&gt;</text><text x="0" y="33.3203125" font-family="Helvetica, Segoe UI Emoji" font-size="16px" fill="#a9a9b2" text-anchor="start" style="white-space: pre;" direction="ltr" dominant-baseline="alphabetic">  const hs = {</text><text x="0" y="51.8203125" font-family="Helvetica, Segoe UI Emoji" font-size="16px" fill="#a9a9b2" text-anchor="start" style="white-space: pre;" direction="ltr" dominant-baseline="alphabetic">    'Authorization': 'Bearer xxx'</text><text x="0" y="70.3203125" font-family="Helvetica, Segoe UI Emoji" font-size="16px" fill="#a9a9b2" text-anchor="start" style="white-space: pre;" direction="ltr" dominant-baseline="alphabetic">  };</text><text x="0" y="88.8203125" font-family="Helvetica, Segoe UI Emoji" font-size="16px" fill="#a9a9b2" text-anchor="start" style="white-space: pre;" direction="ltr" dominant-baseline="alphabetic">  fetch('//sarah.com', {headers: hs})</text><text x="0" y="107.3203125" font-family="Helvetica, Segoe UI Emoji" font-size="16px" fill="#a9a9b2" text-anchor="start" style="white-space: pre;" direction="ltr" dominant-baseline="alphabetic">    .then(data =&gt; data.text())</text><text x="0" y="125.8203125" font-family="Helvetica, Segoe UI Emoji" font-size="16px" fill="#a9a9b2" text-anchor="start" style="white-space: pre;" direction="ltr" dominant-baseline="alphabetic">    .then(console.log);</text><text x="0" y="144.3203125" font-family="Helvetica, Segoe UI Emoji" font-size="16px" fill="#a9a9b2" text-anchor="start" style="white-space: pre;" direction="ltr" dominant-baseline="alphabetic">&lt;/script&gt;</text></g><g stroke-linecap="round"><g transform="translate(303.96343994140625 396.4602966308594) rotate(0 30 0)"><path d="M0 0 C10 0, 50 0, 60 0 M0 0 C10 0, 50 0, 60 0" stroke="#a9a9b2" stroke-width="2" fill="none"></path></g><g transform="translate(303.96343994140625 396.4602966308594) rotate(0 30 0)"><path d="M36.51 8.55 C41.59 6.7, 46.67 4.85, 60 0 M36.51 8.55 C43.3 6.08, 50.1 3.61, 60 0" stroke="#a9a9b2" stroke-width="2" fill="none"></path></g><g transform="translate(303.96343994140625 396.4602966308594) rotate(0 30 0)"><path d="M36.51 -8.55 C41.59 -6.7, 46.67 -4.85, 60 0 M36.51 -8.55 C43.3 -6.08, 50.1 -3.61, 60 0" stroke="#a9a9b2" stroke-width="2" fill="none"></path></g></g><mask></mask><g stroke-linecap="round"><g transform="translate(363.96343994140625 76.46029663085938) rotate(0 260 0)"><path d="M0 0 C86.67 0, 433.33 0, 520 0 M0 0 C86.67 0, 433.33 0, 520 0" stroke="#a9a9b2" stroke-width="2" fill="none"></path></g><g transform="translate(363.96343994140625 76.46029663085938) rotate(0 260 0)"><path d="M496.51 8.55 C504.74 5.55, 512.98 2.56, 520 0 M496.51 8.55 C502.89 6.23, 509.26 3.91, 520 0" stroke="#a9a9b2" stroke-width="2" fill="none"></path></g><g transform="translate(363.96343994140625 76.46029663085938) rotate(0 260 0)"><path d="M496.51 -8.55 C504.74 -5.55, 512.98 -2.56, 520 0 M496.51 -8.55 C502.89 -6.23, 509.26 -3.91, 520 0" stroke="#a9a9b2" stroke-width="2" fill="none"></path></g></g><mask></mask><g transform="translate(383.96343994140625 89.46029663085938) rotate(0 170.5 55.5)"><text x="0" y="14.8203125" font-family="Helvetica, Segoe UI Emoji" font-size="16px" fill="#a9a9b2" text-anchor="start" style="white-space: pre;" direction="ltr" dominant-baseline="alphabetic">OPTIONS / HTTP/2</text><text x="0" y="33.3203125" font-family="Helvetica, Segoe UI Emoji" font-size="16px" fill="#a9a9b2" text-anchor="start" style="white-space: pre;" direction="ltr" dominant-baseline="alphabetic">Host: sarah.com</text><text x="0" y="51.8203125" font-family="Helvetica, Segoe UI Emoji" font-size="16px" fill="#a9a9b2" text-anchor="start" style="white-space: pre;" direction="ltr" dominant-baseline="alphabetic">Origin: https://carol.com</text><text x="0" y="70.3203125" font-family="Helvetica, Segoe UI Emoji" font-size="16px" fill="#a9a9b2" text-anchor="start" style="white-space: pre;" direction="ltr" dominant-baseline="alphabetic">Access-Control-Request-Method: GET</text><text x="0" y="88.8203125" font-family="Helvetica, Segoe UI Emoji" font-size="16px" fill="#a9a9b2" text-anchor="start" style="white-space: pre;" direction="ltr" dominant-baseline="alphabetic">Access-Control-Request-Headers: authorization</text><text x="0" y="107.3203125" font-family="Helvetica, Segoe UI Emoji" font-size="16px" fill="#a9a9b2" text-anchor="start" style="white-space: pre;" direction="ltr" dominant-baseline="alphabetic">-snip-</text></g><g stroke-linecap="round"><g transform="translate(882.7967732747395 237.77653186069392) rotate(0 -258.83333333333326 -0.5401221436157471)"><path d="M0 0 C-86.28 -0.18, -431.39 -0.9, -517.67 -1.08 M0 0 C-86.28 -0.18, -431.39 -0.9, -517.67 -1.08" stroke="#a9a9b2" stroke-width="2" fill="none"></path></g><g transform="translate(882.7967732747395 237.77653186069392) rotate(0 -258.83333333333326 -0.5401221436157471)"><path d="M-494.16 -9.58 C-502.37 -6.61, -510.59 -3.64, -517.67 -1.08 M-494.16 -9.58 C-498.95 -7.85, -503.74 -6.12, -517.67 -1.08" stroke="#a9a9b2" stroke-width="2" fill="none"></path></g><g transform="translate(882.7967732747395 237.77653186069392) rotate(0 -258.83333333333326 -0.5401221436157471)"><path d="M-494.19 7.52 C-502.4 4.51, -510.6 1.51, -517.67 -1.08 M-494.19 7.52 C-498.98 5.77, -503.76 4.01, -517.67 -1.08" stroke="#a9a9b2" stroke-width="2" fill="none"></path></g></g><mask></mask><g transform="translate(532.9634399414062 252.46029663085938) rotate(0 163.5 46.5)"><text x="0" y="14.920312500000001" font-family="Helvetica, Segoe UI Emoji" font-size="16px" fill="#a9a9b2" text-anchor="start" style="white-space: pre;" direction="ltr" dominant-baseline="alphabetic">HTTP/2 204 No Content</text><text x="0" y="33.5203125" font-family="Helvetica, Segoe UI Emoji" font-size="16px" fill="#a9a9b2" text-anchor="start" style="white-space: pre;" direction="ltr" dominant-baseline="alphabetic">Access-Control-Allow-Origin: https://carol.com</text><text x="0" y="52.120312500000004" font-family="Helvetica, Segoe UI Emoji" font-size="16px" fill="#a9a9b2" text-anchor="start" style="white-space: pre;" direction="ltr" dominant-baseline="alphabetic">Access-Control-Allow-Methods: GET</text><text x="0" y="70.7203125" font-family="Helvetica, Segoe UI Emoji" font-size="16px" fill="#a9a9b2" text-anchor="start" style="white-space: pre;" direction="ltr" dominant-baseline="alphabetic">Access-Control-Allow-Headers: authorization</text><text x="0" y="89.3203125" font-family="Helvetica, Segoe UI Emoji" font-size="16px" fill="#a9a9b2" text-anchor="start" style="white-space: pre;" direction="ltr" dominant-baseline="alphabetic">-snip-</text></g><g stroke-linecap="round"><g transform="translate(365.130106608073 396.8860622964128) rotate(0 258.83333333333326 1.0659946127230455)"><path d="M0 0 C86.28 0.36, 431.39 1.78, 517.67 2.13 M0 0 C86.28 0.36, 431.39 1.78, 517.67 2.13" stroke="#a9a9b2" stroke-width="2" fill="none"></path></g><g transform="translate(365.130106608073 396.8860622964128) rotate(0 258.83333333333326 1.0659946127230455)"><path d="M494.14 10.59 C499.06 8.82, 503.98 7.05, 517.67 2.13 M494.14 10.59 C499.84 8.54, 505.55 6.49, 517.67 2.13" stroke="#a9a9b2" stroke-width="2" fill="none"></path></g><g transform="translate(365.130106608073 396.8860622964128) rotate(0 258.83333333333326 1.0659946127230455)"><path d="M494.21 -6.52 C499.12 -4.71, 504.02 -2.9, 517.67 2.13 M494.21 -6.52 C499.9 -4.42, 505.58 -2.32, 517.67 2.13" stroke="#a9a9b2" stroke-width="2" fill="none"></path></g></g><mask></mask><g transform="translate(383.96343994140625 404.0424499511719) rotate(0 90 46.5)"><text x="0" y="14.920312500000001" font-family="Helvetica, Segoe UI Emoji" font-size="16px" fill="#a9a9b2" text-anchor="start" style="white-space: pre;" direction="ltr" dominant-baseline="alphabetic">GET / HTTP/2</text><text x="0" y="33.5203125" font-family="Helvetica, Segoe UI Emoji" font-size="16px" fill="#a9a9b2" text-anchor="start" style="white-space: pre;" direction="ltr" dominant-baseline="alphabetic">Host: sarah.com</text><text x="0" y="52.120312500000004" font-family="Helvetica, Segoe UI Emoji" font-size="16px" fill="#a9a9b2" text-anchor="start" style="white-space: pre;" direction="ltr" dominant-baseline="alphabetic">Authorization: Bearer xxx</text><text x="0" y="70.7203125" font-family="Helvetica, Segoe UI Emoji" font-size="16px" fill="#a9a9b2" text-anchor="start" style="white-space: pre;" direction="ltr" dominant-baseline="alphabetic">Origin: https://carol.com</text><text x="0" y="89.3203125" font-family="Helvetica, Segoe UI Emoji" font-size="16px" fill="#a9a9b2" text-anchor="start" style="white-space: pre;" direction="ltr" dominant-baseline="alphabetic">-snip-</text></g><g stroke-linecap="round"><g transform="translate(882.7967732747395 556.4602966308594) rotate(0 -257.91666666666663 0)"><path d="M0 0 C-85.97 0, -429.86 0, -515.83 0 M0 0 C-85.97 0, -429.86 0, -515.83 0" stroke="#a9a9b2" stroke-width="2" fill="none"></path></g><g transform="translate(882.7967732747395 556.4602966308594) rotate(0 -257.91666666666663 0)"><path d="M-492.34 -8.55 C-499.65 -5.89, -506.95 -3.23, -515.83 0 M-492.34 -8.55 C-499.48 -5.95, -506.62 -3.35, -515.83 0" stroke="#a9a9b2" stroke-width="2" fill="none"></path></g><g transform="translate(882.7967732747395 556.4602966308594) rotate(0 -257.91666666666663 0)"><path d="M-492.34 8.55 C-499.65 5.89, -506.95 3.23, -515.83 0 M-492.34 8.55 C-499.48 5.95, -506.62 3.35, -515.83 0" stroke="#a9a9b2" stroke-width="2" fill="none"></path></g></g><mask></mask><g transform="translate(532.9634399414062 571.4602966308594) rotate(0 163.5 46.5)"><text x="0" y="14.920312500000001" font-family="Helvetica, Segoe UI Emoji" font-size="16px" fill="#a9a9b2" text-anchor="start" style="white-space: pre;" direction="ltr" dominant-baseline="alphabetic">HTTP/2 200 OK</text><text x="0" y="33.5203125" font-family="Helvetica, Segoe UI Emoji" font-size="16px" fill="#a9a9b2" text-anchor="start" style="white-space: pre;" direction="ltr" dominant-baseline="alphabetic">Access-Control-Allow-Origin: https://carol.com</text><text x="0" y="52.120312500000004" font-family="Helvetica, Segoe UI Emoji" font-size="16px" fill="#a9a9b2" text-anchor="start" style="white-space: pre;" direction="ltr" dominant-baseline="alphabetic">-snip-</text><text x="0" y="70.7203125" font-family="Helvetica, Segoe UI Emoji" font-size="16px" fill="#a9a9b2" text-anchor="start" style="white-space: pre;" direction="ltr" dominant-baseline="alphabetic"></text><text x="0" y="89.3203125" font-family="Helvetica, Segoe UI Emoji" font-size="16px" fill="#a9a9b2" text-anchor="start" style="white-space: pre;" direction="ltr" dominant-baseline="alphabetic">Hello, World!</text></g><g transform="translate(307.96343994140625 355.4602966308594) rotate(0 11 21)"><text x="0" y="33.720703125" font-family="Helvetica, Segoe UI Emoji" font-size="36px" fill="#a9a9b2" text-anchor="start" style="white-space: pre;" direction="ltr" dominant-baseline="alphabetic">1</text></g><g transform="translate(843.9634399414062 196.46029663085938) rotate(0 11 21)"><text x="0" y="33.720703125" font-family="Helvetica, Segoe UI Emoji" font-size="36px" fill="#a9a9b2" text-anchor="start" style="white-space: pre;" direction="ltr" dominant-baseline="alphabetic">3</text></g><g transform="translate(383.96343994140625 36.460296630859375) rotate(0 11 21)"><text x="0" y="33.720703125" font-family="Helvetica, Segoe UI Emoji" font-size="36px" fill="#a9a9b2" text-anchor="start" style="white-space: pre;" direction="ltr" dominant-baseline="alphabetic">2</text></g><g transform="translate(383.96343994140625 355.4602966308594) rotate(0 11 21)"><text x="0" y="33.720703125" font-family="Helvetica, Segoe UI Emoji" font-size="36px" fill="#a9a9b2" text-anchor="start" style="white-space: pre;" direction="ltr" dominant-baseline="alphabetic">4</text></g><g transform="translate(843.9634399414062 515.4602966308594) rotate(0 11 21)"><text x="0" y="33.720703125" font-family="Helvetica, Segoe UI Emoji" font-size="36px" fill="#a9a9b2" text-anchor="start" style="white-space: pre;" direction="ltr" dominant-baseline="alphabetic">5</text></g><g transform="translate(335.96343994140625 515.4602966308594) rotate(0 11 21)"><text x="0" y="33.720703125" font-family="Helvetica, Segoe UI Emoji" font-size="36px" fill="#a9a9b2" text-anchor="start" style="white-space: pre;" direction="ltr" dominant-baseline="alphabetic">6</text></g><g stroke-linecap="round"><g transform="translate(363.96343994140625 556.4602966308594) rotate(0 -30 0)"><path d="M0 0 C-10 0, -50 0, -60 0 M0 0 C-10 0, -50 0, -60 0" stroke="#a9a9b2" stroke-width="2" fill="none"></path></g><g transform="translate(363.96343994140625 556.4602966308594) rotate(0 -30 0)"><path d="M-36.51 -8.55 C-44.09 -5.79, -51.68 -3.03, -60 0 M-36.51 -8.55 C-43.18 -6.12, -49.85 -3.69, -60 0" stroke="#a9a9b2" stroke-width="2" fill="none"></path></g><g transform="translate(363.96343994140625 556.4602966308594) rotate(0 -30 0)"><path d="M-36.51 8.55 C-44.09 5.79, -51.68 3.03, -60 0 M-36.51 8.55 C-43.18 6.12, -49.85 3.69, -60 0" stroke="#a9a9b2" stroke-width="2" fill="none"></path></g></g><mask></mask></svg>